<svg width="73" height="15" viewBox="0 0 73 15" fill="none" xmlns="http://www.w3.org/2000/svg">
<path d="M66.0329 2.77636C66.0329 2.88102 66.0329 3.00063 66.0329 3.10529C66.018 3.43422 65.704 3.64353 65.4199 3.49402C65.0462 3.29965 64.6873 3.09034 64.3285 2.86607C64.2388 2.80626 64.164 2.6717 64.1491 2.56704C63.9996 1.35598 64.7322 0.309394 65.8984 0.0552216C66.4665 -0.0793401 67.0048 0.0402703 67.5131 0.324345C68.9634 1.16162 70.4137 1.98394 71.8639 2.82121C72.6115 3.2548 73.0002 3.91266 73.0002 4.76488C73.0002 5.61711 72.6115 6.27496 71.8639 6.70855C70.4137 7.54582 68.9484 8.3831 67.4982 9.22037C66.1077 10.0128 64.4331 9.22037 64.164 7.65048C64.1341 7.45612 64.1491 7.2468 64.1491 7.03748C64.1341 6.61884 63.8201 6.42448 63.4464 6.63379C62.1157 7.39631 60.785 8.15883 59.4693 8.92134C59.1254 9.11571 59.1254 9.50444 59.4693 9.71376C60.8 10.4763 62.1157 11.2388 63.4464 12.0013C63.8052 12.2106 64.1341 12.0163 64.1491 11.6126C64.1491 11.4033 64.1491 11.2089 64.1491 10.9996C64.164 10.6258 64.493 10.4314 64.8219 10.6108C65.1508 10.7903 65.4947 10.9846 65.8087 11.1939C65.9133 11.2687 66.0329 11.4182 66.0479 11.5378C66.1226 12.4947 65.7788 13.3469 64.8817 13.8254C64.179 14.1992 63.4613 14.1992 62.7736 13.8104C61.2784 12.9582 59.7833 12.106 58.2882 11.2388C56.808 10.3716 56.8379 8.24853 58.3181 7.39631C59.7833 6.55904 61.2485 5.70681 62.7138 4.86954C64.2238 4.00236 66.0628 5.06391 66.0628 6.81321C66.0628 6.90292 66.0628 6.99262 66.0628 7.09728C66.0628 7.47107 66.4067 7.66543 66.7357 7.48602C67.3188 7.15709 67.9018 6.81321 68.4999 6.48428C69.2325 6.06564 69.9502 5.64701 70.6828 5.24332C71.1164 4.98915 71.1164 4.63032 70.6828 4.37615C69.382 3.62858 68.0813 2.89597 66.7805 2.13345C66.3918 1.90918 66.018 2.19326 66.0628 2.53714C66.0329 2.58199 66.0329 2.68665 66.0329 2.77636Z" fill="black" fill-opacity="0.8"/>
<path d="M9.78585 4.8993C9.42702 4.8993 9.08314 4.8993 8.73926 4.8993C8.73926 4.3461 8.73926 3.80786 8.73926 3.25466C9.08314 3.25466 9.41207 3.25466 9.7709 3.25466C9.7709 3.1799 9.78585 3.10515 9.78585 3.04534C9.8008 2.61175 9.8008 2.19312 9.8307 1.75953C9.89051 0.967111 10.3241 0.458767 11.0866 0.249449C11.4454 0.159741 12.6266 0.114887 13.0153 0.174692C13.0153 0.653134 13.0153 1.11662 13.0153 1.59507C12.7761 1.63992 12.5369 1.63992 12.3126 1.66982C11.9388 1.71468 11.7445 1.92399 11.7295 2.31273C11.7146 2.62671 11.7295 2.92573 11.7295 3.25466C12.5369 3.25466 13.3293 3.25466 14.1367 3.25466C14.1367 2.65661 14.1367 2.0436 14.1367 1.4306C14.7796 1.4306 15.4075 1.4306 16.0504 1.4306C16.0504 2.02865 16.0504 2.62671 16.0504 3.25466C16.4541 3.25466 16.8429 3.25466 17.2316 3.25466C17.2316 3.82281 17.2316 4.36106 17.2316 4.91425C16.8429 4.91425 16.4691 4.91425 16.0803 4.91425C16.0654 4.94416 16.0504 4.97406 16.0504 4.98901C16.0504 6.15521 16.0504 7.32141 16.0654 8.48761C16.0654 8.90625 16.2897 9.10062 16.7083 9.11557C16.8877 9.13052 17.0671 9.13052 17.2465 9.14547C17.2465 9.69867 17.2465 10.2519 17.2465 10.7901C17.2316 10.8051 17.2316 10.82 17.2166 10.82C16.6335 10.7901 16.0504 10.82 15.4823 10.7303C14.6899 10.6107 14.2114 10.0126 14.1815 9.14547C14.1367 7.97927 14.1516 6.81307 14.1367 5.64687C14.1367 5.40765 14.1367 5.16843 14.1367 4.91425C13.3293 4.91425 12.5369 4.91425 11.7146 4.91425C11.7146 6.87288 11.7146 8.8315 11.7146 10.8051C11.0567 10.8051 10.4288 10.8051 9.78585 10.8051C9.78585 8.84645 9.78585 6.88783 9.78585 4.8993Z" fill="black" fill-opacity="0.8"/>
<path d="M33.753 4.18175C33.8128 4.12194 33.8726 4.04719 33.9324 3.98738C34.6351 3.29962 35.5023 3.04545 36.4741 3.15011C38.2234 3.31457 39.5541 4.7798 39.7186 6.55901C39.8382 7.93453 39.4494 9.13063 38.4029 10.0726C37.2666 11.0892 35.5023 11.2388 34.3212 10.4164C34.1417 10.2968 33.9773 10.1324 33.7829 9.98285C33.7829 10.6407 33.7829 11.2986 33.7829 11.9415C33.7829 12.5844 33.7829 13.2273 33.7829 13.8851C33.14 13.8851 32.4971 13.8851 31.8691 13.8851C31.8691 10.3417 31.8691 6.81318 31.8691 3.26972C32.4821 3.26972 33.0951 3.26972 33.7231 3.26972C33.7231 3.56875 33.7231 3.86777 33.7231 4.1668C33.7381 4.1668 33.753 4.18175 33.753 4.18175ZM37.8347 7.03745C37.8048 6.85803 37.8048 6.67862 37.76 6.4992C37.5207 5.37785 36.4143 4.67514 35.3378 4.92931C34.1118 5.19844 33.454 6.4992 33.8427 7.74016C34.1567 8.7419 35.1136 9.33995 36.1004 9.16053C37.132 8.96616 37.8198 8.12889 37.8347 7.03745Z" fill="black" fill-opacity="0.8"/>
<path d="M6.00322 4.13685C6.00322 3.85277 6.00322 3.5687 6.00322 3.26967C6.63118 3.26967 7.24418 3.26967 7.87214 3.26967C7.87214 5.78149 7.87214 8.29331 7.87214 10.8051C7.25913 10.8051 6.64613 10.8051 6.01817 10.8051C6.01817 10.5061 6.01817 10.2071 6.01817 9.87815C5.80886 10.0576 5.64439 10.222 5.46498 10.3566C4.31373 11.1789 2.60928 11.1191 1.45803 10.2071C0.531048 9.45951 0.0825087 8.48768 0.00775221 7.30652C-0.052053 6.21508 0.232022 5.24324 0.934733 4.39102C1.99627 3.10521 3.92499 2.73142 5.28556 3.5687C5.50983 3.71821 5.7341 3.92753 6.00322 4.13685ZM1.87666 7.02245C1.89162 7.17196 1.90657 7.32147 1.92152 7.47099C2.17569 8.99602 3.93994 9.71368 5.151 8.77175C5.85371 8.2335 6.06303 7.47099 5.92847 6.61876C5.74905 5.43761 4.61275 4.66014 3.4615 4.94422C2.51957 5.16849 1.89162 5.99081 1.87666 7.02245Z" fill="black" fill-opacity="0.8"/>
<path d="M46.4465 4.12199C46.4465 3.83791 46.4465 3.56879 46.4465 3.26976C47.0595 3.26976 47.6725 3.26976 48.3005 3.26976C48.3005 5.76663 48.3005 8.27845 48.3005 10.8052C47.6875 10.8052 47.0744 10.8052 46.4465 10.8052C46.4465 10.5062 46.4465 10.2072 46.4465 9.90814C46.4315 9.89319 46.4166 9.89319 46.4016 9.87824C46.3418 9.95299 46.2671 10.0427 46.2073 10.1025C45.1457 11.0893 43.5011 11.2239 42.2153 10.4314C41.1537 9.77358 40.6155 8.80174 40.466 7.57574C40.3314 6.52915 40.5557 5.55731 41.1537 4.67519C42.0957 3.29967 43.9197 2.73152 45.355 3.37442C45.684 3.52394 45.9681 3.77811 46.282 3.98743C46.3418 4.03228 46.3867 4.09209 46.4315 4.13694C46.4166 4.13694 46.4315 4.13694 46.4465 4.12199ZM46.4315 6.94778C46.4166 6.85808 46.4166 6.69361 46.3717 6.52915C46.0877 5.04897 44.3533 4.37616 43.1572 5.28819C42.4844 5.81149 42.2601 6.52915 42.3498 7.36642C42.4844 8.59243 43.7104 9.4297 44.9065 9.11572C45.8335 8.86155 46.4315 8.03923 46.4315 6.94778Z" fill="black" fill-opacity="0.8"/>
<path d="M25.5896 8.29321C25.47 8.7567 25.2607 9.16038 24.9766 9.51922C24.3188 10.3415 23.4516 10.7602 22.4199 10.8947C21.5378 11.0143 20.6856 10.9097 19.8932 10.491C18.7419 9.893 18.1289 8.90621 17.9645 7.6503C17.8448 6.70837 17.9794 5.81129 18.4578 5.00392C19.1157 3.91248 20.0875 3.31443 21.3584 3.16491C22.405 3.0453 23.3768 3.25462 24.229 3.88258C25.1261 4.55538 25.6046 5.46741 25.7092 6.57381C25.7391 6.88779 25.7092 7.20176 25.7092 7.54564C23.7656 7.54564 21.8518 7.54564 19.938 7.54564C19.938 8.32311 20.566 9.07068 21.3584 9.23514C22.2704 9.41456 23.018 9.17534 23.5712 8.39787C23.6011 8.35301 23.6609 8.30816 23.6908 8.30816C24.3337 8.29321 24.9467 8.29321 25.5896 8.29321ZM19.953 6.33459C21.2089 6.33459 22.4349 6.33459 23.6759 6.33459C23.616 5.51227 22.8535 4.83946 21.9864 4.7946C20.7753 4.7348 20.0726 5.54217 19.953 6.33459Z" fill="black" fill-opacity="0.8"/>
<path d="M49.0479 3.25469C49.3319 3.25469 49.601 3.25469 49.8552 3.25469C50.2589 3.25469 50.6476 3.25469 51.0513 3.25469C51.2008 3.25469 51.2606 3.29955 51.3204 3.43411C51.9035 4.77972 52.4866 6.11039 53.0698 7.45601C53.0997 7.53076 53.1296 7.59057 53.1894 7.69523C53.3987 7.24669 53.608 6.82805 53.8024 6.39447C54.2808 5.39273 54.7592 4.39099 55.2377 3.38925C55.2676 3.32945 55.3274 3.25469 55.3872 3.25469C56.06 3.23974 56.7328 3.25469 57.4505 3.25469C57.3907 3.38925 57.3458 3.49391 57.286 3.59857C55.6563 6.97757 54.0117 10.3416 52.382 13.7206C52.3222 13.8402 52.2624 13.9 52.1129 13.9C51.5148 13.8851 50.9168 13.9 50.3337 13.9C50.2888 13.9 50.244 13.9 50.1542 13.8851C50.1991 13.7804 50.229 13.7057 50.2739 13.6309C50.857 12.4348 51.4251 11.2536 52.0082 10.0575C52.068 9.95288 52.0531 9.86317 52.0082 9.77346C51.0513 7.68028 50.0944 5.57214 49.1376 3.47896C49.1077 3.4042 49.0927 3.3444 49.0479 3.25469Z" fill="black" fill-opacity="0.8"/>
<path d="M28.5048 3.2696C28.5048 3.49387 28.5048 3.70319 28.5048 3.95736C28.5646 3.89756 28.5945 3.86765 28.6245 3.8228C29.1477 3.1799 30.0598 2.94067 30.8223 3.2397C30.8821 3.25465 30.9569 3.34436 30.9569 3.40416C30.9718 4.00222 30.9569 4.60027 30.9569 5.21327C30.8372 5.15347 30.7326 5.10861 30.6279 5.06376C30.299 4.9292 29.9551 4.82454 29.5963 4.88434C29.073 4.97405 28.7142 5.36278 28.6095 5.93093C28.5796 6.0655 28.5796 6.21501 28.5646 6.34957C28.5646 7.75499 28.5646 9.16041 28.5646 10.5658C28.5646 10.6406 28.5646 10.7153 28.5646 10.7901C27.9217 10.7901 27.2938 10.7901 26.6509 10.7901C26.6509 8.27829 26.6509 5.76647 26.6509 3.25465C27.2788 3.2696 27.8769 3.2696 28.5048 3.2696Z" fill="black" fill-opacity="0.8"/>
</svg>
