<?xml version="1.0" encoding="UTF-8" standalone="no"?><!DOCTYPE svg PUBLIC "-//W3C//DTD SVG 1.1//EN" "http://www.w3.org/Graphics/SVG/1.1/DTD/svg11.dtd"><svg width="100%" height="100%" viewBox="0 0 1024 1024" version="1.1" xmlns="http://www.w3.org/2000/svg" xmlns:xlink="http://www.w3.org/1999/xlink" xml:space="preserve" xmlns:serif="http://www.serif.com/" style="fill-rule:evenodd;clip-rule:evenodd;stroke-linejoin:round;stroke-miterlimit:2;"><rect id="Artboard1" x="0" y="0" width="1024" height="1024" style="fill:none;"/><g id="Artboard11" serif:id="Artboard1"><g><path d="M640.751,830.819l-522.486,-0c-58.413,-0 -105.759,-48.49 -105.759,-108.313l0,-606.69c0,-59.826 47.346,-108.316 105.759,-108.316l522.486,0c96.984,0 175.632,80.519 175.632,179.878l-0,463.562c-0,99.331 -78.648,179.879 -175.632,179.879Z" style="fill:#38bba1;fill-rule:nonzero;"/><path d="M729.113,87.927l-522.488,-0c-58.413,-0 -105.759,48.49 -105.759,108.316l0,606.691c0,59.822 47.346,108.312 105.759,108.312l522.488,0c96.981,0 175.626,-80.52 175.626,-179.879l-0,-463.563c-0,-99.358 -78.645,-179.877 -175.626,-179.877Zm2.835,577.624c-0,45.431 -35.979,82.281 -80.339,82.281l-351.319,-0c-18.156,-0 -32.87,-15.074 -32.87,-33.667l0,-97.259c0,-18.593 14.714,-33.666 32.87,-33.666l351.289,-0c44.39,0.032 80.369,36.879 80.369,82.311Zm-0,-328.438c-0,45.431 -35.979,82.279 -80.339,82.279l-351.319,-0c-18.156,-0 -32.87,-15.071 -32.87,-33.666l0,-97.258c0,-18.592 14.714,-33.666 32.87,-33.666l351.289,0c44.39,0.032 80.369,36.877 80.369,82.311Z" style="fill:#606161;fill-rule:nonzero;"/><path d="M835.861,193.182l-522.485,0c-58.412,0 -105.757,48.491 -105.757,108.316l-0,606.69c-0,59.824 47.345,108.312 105.757,108.312l522.485,-0c96.987,-0 175.633,-80.518 175.633,-179.879l-0,-463.561c-0,-99.358 -78.621,-179.878 -175.633,-179.878Zm19.538,577.656c0,45.432 -35.979,82.275 -80.336,82.275l-367.991,-0c-18.153,-0 -32.87,-15.065 -32.87,-33.66l0,-97.257c0,-18.595 14.717,-33.669 32.87,-33.669l367.991,0c44.357,0 80.336,36.846 80.336,82.311Zm0,-328.469c0,45.431 -35.979,82.279 -80.336,82.279l-367.991,-0c-18.153,-0 -32.87,-15.074 -32.87,-33.666l0,-97.26c0,-18.593 14.717,-33.664 32.87,-33.664l367.991,0c44.357,0.032 80.336,36.877 80.336,82.311Z" style="fill:#bde3ef;fill-rule:nonzero;"/></g></g></svg>