<?xml version="1.0" encoding="UTF-8" standalone="no"?><!DOCTYPE svg PUBLIC "-//W3C//DTD SVG 1.1//EN" "http://www.w3.org/Graphics/SVG/1.1/DTD/svg11.dtd"><svg width="100%" height="100%" viewBox="0 0 234 48" version="1.1" xmlns="http://www.w3.org/2000/svg" xmlns:xlink="http://www.w3.org/1999/xlink" xml:space="preserve" xmlns:serif="http://www.serif.com/" style="fill-rule:evenodd;clip-rule:evenodd;stroke-linejoin:round;stroke-miterlimit:2;"><rect id="Artboard1" x="0" y="0" width="234" height="48" style="fill:none;"/><clipPath id="_clip1"><rect x="0" y="0" width="234" height="48"/></clipPath><g clip-path="url(#_clip1)"><path d="M7.449,25.885c0,-2.198 -0.793,-3.298 -2.38,-3.298c-0.345,0 -0.689,0.046 -1.034,0.138c-0.329,0.091 -0.599,0.206 -0.808,0.343l-0,6.207c0.164,0.03 0.374,0.061 0.629,0.091c0.254,0.016 0.531,0.023 0.831,0.023c0.913,0 1.602,-0.32 2.066,-0.962c0.464,-0.641 0.696,-1.488 0.696,-2.542Zm3.415,0.092c-0,0.962 -0.143,1.832 -0.427,2.611c-0.27,0.778 -0.667,1.442 -1.191,1.992c-0.524,0.55 -1.168,0.977 -1.931,1.283c-0.764,0.29 -1.633,0.435 -2.606,0.435c-0.404,-0 -0.831,-0.023 -1.28,-0.069c-0.434,-0.03 -0.869,-0.076 -1.303,-0.137c-0.419,-0.062 -0.824,-0.13 -1.213,-0.206c-0.389,-0.092 -0.734,-0.184 -1.033,-0.275l-0,-16.833l3.347,-0.55l-0,6c0.374,-0.168 0.763,-0.297 1.168,-0.389c0.404,-0.092 0.838,-0.137 1.302,-0.137c0.839,-0 1.58,0.152 2.224,0.458c0.644,0.29 1.183,0.71 1.617,1.259c0.434,0.55 0.764,1.214 0.989,1.993c0.224,0.763 0.337,1.618 0.337,2.565Zm13.623,-0.023c-0,0.947 -0.135,1.817 -0.404,2.611c-0.27,0.778 -0.659,1.45 -1.168,2.015c-0.51,0.55 -1.123,0.977 -1.842,1.283c-0.704,0.305 -1.498,0.458 -2.381,0.458c-0.869,-0 -1.662,-0.153 -2.381,-0.458c-0.704,-0.306 -1.311,-0.733 -1.819,-1.283c-0.51,-0.565 -0.907,-1.237 -1.191,-2.015c-0.285,-0.794 -0.427,-1.664 -0.427,-2.611c0,-0.947 0.142,-1.809 0.427,-2.588c0.299,-0.779 0.704,-1.443 1.213,-1.992c0.524,-0.55 1.138,-0.978 1.842,-1.283c0.719,-0.305 1.497,-0.458 2.336,-0.458c0.853,-0 1.632,0.153 2.336,0.458c0.719,0.305 1.333,0.733 1.842,1.283c0.509,0.549 0.906,1.213 1.19,1.992c0.284,0.779 0.427,1.641 0.427,2.588Zm-3.414,-0c-0,-1.054 -0.21,-1.878 -0.629,-2.474c-0.404,-0.61 -0.988,-0.916 -1.752,-0.916c-0.764,0 -1.355,0.306 -1.775,0.916c-0.419,0.596 -0.628,1.42 -0.628,2.474c-0,1.053 0.209,1.893 0.628,2.519c0.42,0.611 1.011,0.916 1.775,0.916c0.764,0 1.348,-0.305 1.752,-0.916c0.419,-0.626 0.629,-1.466 0.629,-2.519Zm9.398,3.596c0.614,-0 1.048,-0.062 1.303,-0.184c0.254,-0.122 0.382,-0.359 0.382,-0.71c-0,-0.274 -0.165,-0.511 -0.495,-0.71c-0.329,-0.213 -0.831,-0.45 -1.505,-0.71c-0.524,-0.198 -1.003,-0.404 -1.437,-0.618c-0.419,-0.214 -0.778,-0.466 -1.078,-0.756c-0.3,-0.305 -0.532,-0.664 -0.696,-1.076c-0.165,-0.412 -0.248,-0.909 -0.248,-1.489c0,-1.13 0.412,-2.023 1.236,-2.679c0.824,-0.657 1.954,-0.985 3.392,-0.985c0.718,-0 1.407,0.069 2.066,0.206c0.659,0.122 1.183,0.26 1.572,0.412l-0.584,2.657c-0.389,-0.137 -0.816,-0.26 -1.28,-0.366c-0.449,-0.107 -0.958,-0.161 -1.527,-0.161c-1.048,0 -1.573,0.298 -1.573,0.893c0,0.138 0.023,0.26 0.068,0.367c0.045,0.107 0.134,0.214 0.269,0.32c0.135,0.092 0.315,0.199 0.539,0.321c0.24,0.107 0.539,0.229 0.899,0.366c0.734,0.275 1.34,0.55 1.819,0.825c0.48,0.26 0.854,0.55 1.123,0.87c0.285,0.306 0.48,0.649 0.584,1.031c0.12,0.382 0.18,0.824 0.18,1.328c-0,1.191 -0.442,2.092 -1.325,2.703c-0.869,0.61 -2.104,0.916 -3.706,0.916c-1.049,-0 -1.924,-0.092 -2.628,-0.275c-0.689,-0.183 -1.168,-0.336 -1.438,-0.458l0.562,-2.771c0.569,0.229 1.153,0.412 1.752,0.549c0.599,0.122 1.19,0.184 1.774,0.184Zm10.902,-0c0.614,-0 1.048,-0.062 1.303,-0.184c0.254,-0.122 0.381,-0.358 0.381,-0.71c0,-0.274 -0.164,-0.511 -0.494,-0.71c-0.329,-0.213 -0.831,-0.45 -1.505,-0.709c-0.524,-0.199 -1.003,-0.405 -1.437,-0.619c-0.42,-0.214 -0.779,-0.466 -1.078,-0.756c-0.3,-0.305 -0.532,-0.664 -0.697,-1.076c-0.164,-0.412 -0.247,-0.908 -0.247,-1.489c0,-1.129 0.412,-2.023 1.236,-2.679c0.823,-0.657 1.954,-0.985 3.391,-0.985c0.719,0 1.408,0.069 2.067,0.206c0.659,0.122 1.183,0.26 1.572,0.412l-0.584,2.657c-0.389,-0.137 -0.816,-0.26 -1.28,-0.366c-0.449,-0.107 -0.959,-0.161 -1.528,-0.161c-1.048,0 -1.572,0.298 -1.572,0.893c0,0.138 0.023,0.26 0.067,0.367c0.045,0.107 0.135,0.214 0.27,0.321c0.135,0.091 0.314,0.198 0.539,0.32c0.24,0.107 0.539,0.229 0.899,0.367c0.733,0.274 1.34,0.549 1.819,0.824c0.479,0.26 0.853,0.55 1.123,0.87c0.285,0.306 0.479,0.649 0.584,1.031c0.12,0.382 0.18,0.824 0.18,1.328c0,1.191 -0.442,2.092 -1.326,2.703c-0.868,0.61 -2.104,0.916 -3.706,0.916c-1.048,-0 -1.924,-0.092 -2.628,-0.275c-0.689,-0.183 -1.168,-0.336 -1.437,-0.458l0.561,-2.771c0.569,0.229 1.153,0.412 1.752,0.549c0.599,0.122 1.191,0.184 1.775,0.184Zm119.315,-3.482c0,-1.053 -0.232,-1.893 -0.696,-2.519c-0.464,-0.641 -1.153,-0.962 -2.067,-0.962c-0.299,0 -0.576,0.016 -0.831,0.046c-0.254,0.015 -0.464,0.038 -0.629,0.069l0,6.161c0.21,0.137 0.48,0.251 0.809,0.343c0.344,0.092 0.689,0.137 1.033,0.137c1.587,0 2.381,-1.091 2.381,-3.274Zm3.414,-0.092c0,0.931 -0.112,1.779 -0.337,2.542c-0.225,0.763 -0.554,1.42 -0.988,1.969c-0.434,0.55 -0.973,0.978 -1.617,1.283c-0.644,0.305 -1.385,0.458 -2.224,0.458c-0.464,0 -0.899,-0.046 -1.303,-0.137c-0.404,-0.092 -0.793,-0.222 -1.168,-0.39l0,4.535l-3.347,-0l0,-15.871c0.3,-0.092 0.644,-0.176 1.034,-0.252c0.389,-0.092 0.793,-0.168 1.212,-0.229c0.435,-0.061 0.869,-0.107 1.303,-0.138c0.45,-0.045 0.876,-0.068 1.281,-0.068c0.973,-0 1.841,0.152 2.605,0.458c0.764,0.29 1.408,0.71 1.932,1.259c0.524,0.535 0.921,1.191 1.19,1.97c0.285,0.779 0.427,1.649 0.427,2.611Zm7.289,6.252c-0.973,-0.015 -1.767,-0.122 -2.381,-0.321c-0.599,-0.198 -1.078,-0.473 -1.437,-0.824c-0.345,-0.366 -0.584,-0.802 -0.719,-1.305c-0.12,-0.52 -0.18,-1.1 -0.18,-1.741l0,-13.26l3.347,-0.55l0,13.123c0,0.305 0.023,0.58 0.068,0.824c0.044,0.245 0.127,0.451 0.247,0.619c0.134,0.168 0.321,0.305 0.561,0.412c0.24,0.107 0.562,0.176 0.966,0.206l-0.472,2.817Zm7.234,-2.611c0.33,0 0.644,-0.007 0.943,-0.023c0.3,-0.015 0.54,-0.038 0.719,-0.068l0,-2.588c-0.135,-0.031 -0.337,-0.061 -0.606,-0.092c-0.27,-0.03 -0.517,-0.046 -0.741,-0.046c-0.315,0 -0.614,0.023 -0.899,0.069c-0.269,0.031 -0.509,0.099 -0.719,0.206c-0.209,0.107 -0.374,0.252 -0.494,0.435c-0.12,0.183 -0.18,0.412 -0.18,0.687c0,0.535 0.173,0.909 0.517,1.122c0.359,0.199 0.846,0.298 1.46,0.298Zm-0.269,-9.985c0.988,-0 1.812,0.114 2.47,0.343c0.659,0.23 1.183,0.558 1.573,0.985c0.404,0.428 0.689,0.947 0.853,1.558c0.165,0.61 0.247,1.29 0.247,2.038l0,7.099c-0.479,0.107 -1.145,0.23 -1.999,0.367c-0.853,0.153 -1.887,0.229 -3.1,0.229c-0.763,0 -1.46,-0.069 -2.088,-0.206c-0.614,-0.137 -1.146,-0.359 -1.595,-0.664c-0.449,-0.321 -0.794,-0.733 -1.033,-1.237c-0.24,-0.504 -0.36,-1.122 -0.36,-1.855c0,-0.702 0.135,-1.298 0.404,-1.786c0.285,-0.489 0.659,-0.878 1.124,-1.168c0.464,-0.29 0.995,-0.497 1.594,-0.619c0.599,-0.137 1.221,-0.206 1.865,-0.206c0.434,0 0.816,0.023 1.145,0.069c0.344,0.03 0.622,0.076 0.831,0.137l0,-0.32c0,-0.581 -0.172,-1.046 -0.516,-1.397c-0.345,-0.352 -0.944,-0.527 -1.797,-0.527c-0.569,-0 -1.131,0.046 -1.685,0.137c-0.554,0.077 -1.033,0.191 -1.437,0.344l-0.427,-2.748c0.195,-0.061 0.434,-0.123 0.719,-0.184c0.299,-0.076 0.621,-0.137 0.965,-0.183c0.345,-0.061 0.704,-0.107 1.079,-0.137c0.389,-0.046 0.778,-0.069 1.168,-0.069Zm8.17,0.733c0.569,-0.168 1.302,-0.321 2.201,-0.458c0.898,-0.153 1.842,-0.229 2.83,-0.229c1.003,-0 1.834,0.137 2.493,0.412c0.674,0.26 1.206,0.634 1.595,1.122c0.389,0.489 0.666,1.069 0.831,1.741c0.165,0.672 0.247,1.42 0.247,2.244l0,6.802l-3.347,0l0,-6.39c0,-1.099 -0.142,-1.877 -0.426,-2.336c-0.285,-0.458 -0.817,-0.687 -1.595,-0.687c-0.24,0 -0.494,0.016 -0.764,0.046c-0.269,0.015 -0.509,0.038 -0.719,0.069l0,9.298l-3.346,0l0,-11.634Zm13.226,-0c0.569,-0.168 1.303,-0.321 2.202,-0.458c0.898,-0.153 1.842,-0.229 2.83,-0.229c1.003,-0 1.834,0.137 2.493,0.412c0.674,0.26 1.206,0.634 1.595,1.122c0.389,0.489 0.666,1.069 0.831,1.741c0.165,0.672 0.247,1.42 0.247,2.244l-0,6.802l-3.347,0l0,-6.39c0,-1.099 -0.142,-1.877 -0.427,-2.336c-0.284,-0.458 -0.816,-0.687 -1.594,-0.687c-0.24,0 -0.494,0.016 -0.764,0.046c-0.27,0.015 -0.509,0.038 -0.719,0.069l-0,9.298l-3.347,0l0,-11.634Zm12.666,5.703c0,-1.069 0.157,-2.001 0.471,-2.795c0.33,-0.809 0.757,-1.481 1.281,-2.015c0.524,-0.534 1.123,-0.939 1.797,-1.214c0.689,-0.275 1.392,-0.412 2.111,-0.412c1.677,0 3.002,0.527 3.976,1.58c0.973,1.039 1.46,2.573 1.46,4.604c0,0.198 -0.008,0.419 -0.023,0.664c-0.015,0.229 -0.03,0.435 -0.045,0.618l-7.592,0c0.075,0.702 0.397,1.26 0.966,1.672c0.569,0.412 1.333,0.618 2.291,0.618c0.614,0 1.213,-0.053 1.797,-0.16c0.599,-0.122 1.086,-0.267 1.46,-0.435l0.449,2.771c-0.179,0.092 -0.419,0.183 -0.718,0.275c-0.3,0.091 -0.637,0.168 -1.011,0.229c-0.359,0.076 -0.749,0.137 -1.168,0.183c-0.419,0.046 -0.839,0.069 -1.258,0.069c-1.063,-0 -1.991,-0.161 -2.785,-0.481c-0.779,-0.321 -1.43,-0.756 -1.954,-1.306c-0.509,-0.565 -0.891,-1.229 -1.146,-1.992c-0.239,-0.763 -0.359,-1.588 -0.359,-2.473Zm7.861,-1.306c-0.015,-0.29 -0.067,-0.572 -0.157,-0.847c-0.075,-0.275 -0.202,-0.519 -0.382,-0.733c-0.164,-0.214 -0.382,-0.389 -0.651,-0.527c-0.255,-0.137 -0.577,-0.206 -0.966,-0.206c-0.374,0 -0.696,0.069 -0.966,0.206c-0.269,0.122 -0.494,0.29 -0.674,0.504c-0.179,0.214 -0.322,0.466 -0.426,0.756c-0.09,0.275 -0.158,0.557 -0.203,0.847l4.425,0Zm12.938,-1.786c-0.3,-0.077 -0.652,-0.153 -1.056,-0.229c-0.404,-0.092 -0.838,-0.138 -1.303,-0.138c-0.209,0 -0.464,0.023 -0.763,0.069c-0.285,0.031 -0.502,0.069 -0.652,0.115l0,9.206l-3.347,0l0,-11.405c0.6,-0.214 1.303,-0.412 2.112,-0.596c0.824,-0.198 1.737,-0.297 2.74,-0.297c0.18,-0 0.397,0.015 0.652,0.046c0.254,0.015 0.509,0.045 0.763,0.091c0.255,0.031 0.509,0.077 0.764,0.138c0.254,0.045 0.472,0.106 0.651,0.183l-0.561,2.817Z" style="fill:#606161;fill-rule:nonzero;"/><path d="M61.848,26.069c0,-1.054 -0.232,-1.894 -0.696,-2.52c-0.464,-0.641 -1.153,-0.962 -2.066,-0.962c-0.3,0 -0.577,0.016 -0.832,0.046c-0.254,0.015 -0.464,0.038 -0.628,0.069l0,6.161c0.209,0.137 0.479,0.251 0.808,0.343c0.344,0.092 0.689,0.137 1.033,0.137c1.588,0 2.381,-1.091 2.381,-3.274Zm3.414,-0.092c0,0.931 -0.112,1.779 -0.336,2.542c-0.225,0.763 -0.555,1.42 -0.989,1.969c-0.434,0.55 -0.973,0.978 -1.617,1.283c-0.644,0.305 -1.385,0.458 -2.224,0.458c-0.464,0 -0.898,-0.046 -1.302,-0.137c-0.405,-0.092 -0.794,-0.222 -1.168,-0.39l0,4.535l-3.347,-0l-0,-15.871c0.299,-0.092 0.644,-0.176 1.033,-0.252c0.389,-0.092 0.794,-0.168 1.213,-0.229c0.434,-0.061 0.869,-0.107 1.303,-0.138c0.449,-0.045 0.876,-0.068 1.28,-0.068c0.973,-0 1.842,0.152 2.606,0.458c0.763,0.29 1.407,0.71 1.931,1.259c0.524,0.535 0.921,1.191 1.191,1.97c0.284,0.779 0.426,1.649 0.426,2.611Zm2.011,0.091c0,-1.068 0.157,-2 0.472,-2.794c0.329,-0.809 0.756,-1.481 1.28,-2.015c0.524,-0.534 1.123,-0.939 1.797,-1.214c0.689,-0.275 1.393,-0.412 2.112,-0.412c1.676,-0 3.002,0.527 3.975,1.58c0.973,1.038 1.46,2.573 1.46,4.603c0,0.199 -0.007,0.42 -0.022,0.665c-0.015,0.229 -0.03,0.435 -0.045,0.618l-7.592,-0c0.075,0.702 0.396,1.26 0.966,1.672c0.569,0.412 1.332,0.618 2.291,0.618c0.614,0 1.213,-0.053 1.797,-0.16c0.598,-0.122 1.085,-0.267 1.46,-0.435l0.449,2.771c-0.18,0.091 -0.419,0.183 -0.719,0.275c-0.3,0.091 -0.636,0.168 -1.011,0.229c-0.359,0.076 -0.749,0.137 -1.168,0.183c-0.419,0.046 -0.838,0.069 -1.257,0.069c-1.064,-0 -1.992,-0.161 -2.786,-0.481c-0.778,-0.321 -1.43,-0.756 -1.954,-1.306c-0.509,-0.565 -0.891,-1.229 -1.145,-1.992c-0.24,-0.764 -0.36,-1.588 -0.36,-2.474Zm7.862,-1.305c-0.015,-0.29 -0.068,-0.573 -0.157,-0.847c-0.076,-0.275 -0.203,-0.519 -0.382,-0.733c-0.165,-0.214 -0.382,-0.39 -0.652,-0.527c-0.254,-0.137 -0.576,-0.206 -0.966,-0.206c-0.374,-0 -0.696,0.069 -0.965,0.206c-0.27,0.122 -0.495,0.29 -0.674,0.504c-0.18,0.214 -0.322,0.466 -0.427,0.756c-0.09,0.274 -0.157,0.557 -0.202,0.847l4.425,-0Zm12.937,-1.786c-0.299,-0.077 -0.651,-0.153 -1.056,-0.229c-0.404,-0.092 -0.838,-0.138 -1.302,-0.138c-0.21,0 -0.464,0.023 -0.764,0.069c-0.284,0.03 -0.502,0.069 -0.652,0.114l0,9.207l-3.346,0l0,-11.405c0.599,-0.214 1.302,-0.412 2.111,-0.596c0.824,-0.198 1.737,-0.297 2.74,-0.297c0.18,-0 0.397,0.015 0.652,0.045c0.255,0.016 0.509,0.046 0.763,0.092c0.255,0.031 0.51,0.076 0.764,0.137c0.255,0.046 0.472,0.107 0.652,0.184l-0.562,2.817Zm5.747,6.573c0.615,-0 1.049,-0.062 1.303,-0.184c0.255,-0.122 0.382,-0.359 0.382,-0.71c0,-0.274 -0.165,-0.511 -0.494,-0.71c-0.329,-0.213 -0.831,-0.45 -1.505,-0.71c-0.524,-0.198 -1.003,-0.404 -1.438,-0.618c-0.419,-0.214 -0.778,-0.466 -1.078,-0.756c-0.299,-0.305 -0.531,-0.664 -0.696,-1.076c-0.165,-0.412 -0.247,-0.909 -0.247,-1.489c0,-1.13 0.412,-2.023 1.235,-2.679c0.824,-0.657 1.954,-0.985 3.392,-0.985c0.719,-0 1.408,0.069 2.066,0.206c0.659,0.122 1.183,0.26 1.573,0.412l-0.584,2.657c-0.39,-0.137 -0.816,-0.26 -1.281,-0.366c-0.449,-0.107 -0.958,-0.161 -1.527,-0.161c-1.048,0 -1.572,0.298 -1.572,0.893c0,0.138 0.022,0.26 0.067,0.367c0.045,0.107 0.135,0.214 0.27,0.32c0.134,0.092 0.314,0.199 0.539,0.321c0.239,0.107 0.539,0.229 0.898,0.366c0.734,0.275 1.34,0.55 1.82,0.825c0.479,0.26 0.853,0.55 1.123,0.87c0.284,0.306 0.479,0.649 0.584,1.031c0.12,0.382 0.179,0.824 0.179,1.328c0,1.191 -0.441,2.092 -1.325,2.703c-0.868,0.61 -2.104,0.916 -3.706,0.916c-1.048,-0 -1.924,-0.092 -2.628,-0.275c-0.689,-0.183 -1.168,-0.336 -1.438,-0.458l0.562,-2.771c0.569,0.229 1.153,0.412 1.752,0.549c0.599,0.122 1.19,0.184 1.774,0.184Zm18.562,-3.596c0,0.947 -0.135,1.817 -0.405,2.611c-0.269,0.778 -0.658,1.45 -1.168,2.015c-0.509,0.55 -1.123,0.977 -1.842,1.283c-0.703,0.305 -1.497,0.458 -2.38,0.458c-0.869,-0 -1.663,-0.153 -2.381,-0.458c-0.704,-0.306 -1.311,-0.733 -1.82,-1.283c-0.509,-0.565 -0.906,-1.237 -1.19,-2.015c-0.285,-0.794 -0.427,-1.664 -0.427,-2.611c0,-0.947 0.142,-1.809 0.427,-2.588c0.299,-0.779 0.703,-1.443 1.213,-1.992c0.524,-0.55 1.138,-0.978 1.842,-1.283c0.718,-0.305 1.497,-0.458 2.336,-0.458c0.853,-0 1.632,0.153 2.336,0.458c0.718,0.305 1.332,0.733 1.841,1.283c0.51,0.549 0.906,1.213 1.191,1.992c0.284,0.779 0.427,1.641 0.427,2.588Zm-3.415,-0c0,-1.054 -0.209,-1.878 -0.628,-2.474c-0.405,-0.61 -0.989,-0.916 -1.752,-0.916c-0.764,0 -1.356,0.306 -1.775,0.916c-0.419,0.596 -0.629,1.42 -0.629,2.474c0,1.053 0.21,1.893 0.629,2.519c0.419,0.611 1.011,0.916 1.775,0.916c0.763,0 1.347,-0.305 1.752,-0.916c0.419,-0.626 0.628,-1.466 0.628,-2.519Zm6.007,-5.588c0.569,-0.168 1.303,-0.321 2.201,-0.458c0.899,-0.153 1.842,-0.229 2.831,-0.229c1.003,-0 1.834,0.137 2.493,0.412c0.674,0.26 1.205,0.634 1.595,1.122c0.389,0.489 0.666,1.069 0.831,1.741c0.164,0.672 0.247,1.42 0.247,2.244l0,6.802l-3.347,0l0,-6.39c0,-1.099 -0.142,-1.878 -0.427,-2.336c-0.284,-0.458 -0.816,-0.687 -1.595,-0.687c-0.239,0 -0.494,0.016 -0.763,0.046c-0.27,0.015 -0.509,0.038 -0.719,0.069l0,9.298l-3.347,0l0,-11.634Zm17.742,9.252c0.329,0 0.644,-0.007 0.943,-0.023c0.3,-0.015 0.539,-0.038 0.719,-0.068l0,-2.588c-0.135,-0.031 -0.337,-0.061 -0.607,-0.092c-0.269,-0.03 -0.516,-0.046 -0.741,-0.046c-0.314,0 -0.614,0.023 -0.898,0.069c-0.27,0.031 -0.509,0.099 -0.719,0.206c-0.21,0.107 -0.374,0.252 -0.494,0.435c-0.12,0.183 -0.18,0.412 -0.18,0.687c0,0.535 0.172,0.909 0.517,1.122c0.359,0.199 0.846,0.298 1.46,0.298Zm-0.27,-9.985c0.989,-0 1.812,0.114 2.471,0.343c0.659,0.23 1.183,0.558 1.572,0.985c0.405,0.428 0.689,0.947 0.854,1.558c0.164,0.61 0.247,1.29 0.247,2.038l0,7.099c-0.479,0.107 -1.146,0.23 -1.999,0.367c-0.854,0.153 -1.887,0.229 -3.1,0.229c-0.764,0 -1.46,-0.069 -2.089,-0.206c-0.614,-0.137 -1.145,-0.359 -1.595,-0.664c-0.449,-0.321 -0.793,-0.733 -1.033,-1.237c-0.239,-0.504 -0.359,-1.122 -0.359,-1.855c0,-0.702 0.135,-1.298 0.404,-1.786c0.285,-0.489 0.659,-0.878 1.123,-1.168c0.465,-0.29 0.996,-0.497 1.595,-0.619c0.599,-0.137 1.22,-0.206 1.864,-0.206c0.434,0 0.816,0.023 1.146,0.069c0.344,0.03 0.621,0.076 0.831,0.137l0,-0.32c0,-0.581 -0.172,-1.046 -0.517,-1.397c-0.344,-0.352 -0.943,-0.527 -1.797,-0.527c-0.569,-0 -1.13,0.046 -1.684,0.137c-0.554,0.077 -1.033,0.191 -1.438,0.344l-0.427,-2.748c0.195,-0.061 0.435,-0.123 0.719,-0.184c0.3,-0.076 0.622,-0.137 0.966,-0.183c0.344,-0.061 0.704,-0.107 1.078,-0.137c0.389,-0.046 0.779,-0.069 1.168,-0.069Zm12.887,12.596c-0.973,-0.015 -1.767,-0.122 -2.381,-0.32c-0.599,-0.199 -1.078,-0.474 -1.437,-0.825c-0.345,-0.366 -0.584,-0.802 -0.719,-1.305c-0.12,-0.52 -0.18,-1.1 -0.18,-1.741l0,-13.26l3.347,-0.55l0,13.123c0,0.305 0.023,0.58 0.068,0.824c0.044,0.245 0.127,0.451 0.247,0.619c0.134,0.168 0.321,0.305 0.561,0.412c0.24,0.107 0.562,0.176 0.966,0.206l-0.472,2.817Z" style="fill:#38bba1;fill-rule:nonzero;"/></g></svg>