<svg width="208" height="80" viewBox="0 0 208 80" fill="none" xmlns="http://www.w3.org/2000/svg">
	<path
		d="M108.023 15.001C108.023 12.8348 107.219 11.7518 105.611 11.7518C105.262 11.7518 104.914 11.7969 104.565 11.8872C104.231 11.9774 103.958 12.0902 103.745 12.2256V18.3405C103.912 18.3706 104.124 18.4006 104.383 18.4307C104.641 18.4458 104.921 18.4533 105.224 18.4533C106.149 18.4533 106.847 18.1374 107.317 17.5056C107.788 16.8738 108.023 16.0389 108.023 15.001ZM111.481 15.0913C111.481 16.0389 111.337 16.8964 111.049 17.6636C110.776 18.4307 110.374 19.0851 109.843 19.6266C109.312 20.1682 108.66 20.5894 107.886 20.8902C107.113 21.176 106.233 21.3189 105.247 21.3189C104.838 21.3189 104.405 21.2964 103.95 21.2513C103.51 21.2212 103.071 21.176 102.631 21.1159C102.206 21.0557 101.797 20.988 101.402 20.9128C101.008 20.8225 100.659 20.7323 100.355 20.642V4.05741L103.745 3.51587V9.42766C104.124 9.26218 104.519 9.13433 104.929 9.04407C105.338 8.95382 105.778 8.90869 106.248 8.90869C107.098 8.90869 107.849 9.0591 108.501 9.35997C109.153 9.64577 109.699 10.0595 110.139 10.601C110.579 11.1425 110.912 11.7969 111.14 12.5641C111.367 13.3162 111.481 14.1586 111.481 15.0913ZM125.28 15.0687C125.28 16.0014 125.144 16.8588 124.871 17.641C124.598 18.4082 124.203 19.0701 123.688 19.6266C123.172 20.1682 122.55 20.5894 121.822 20.8902C121.109 21.1911 120.305 21.3415 119.41 21.3415C118.53 21.3415 117.727 21.1911 116.999 20.8902C116.286 20.5894 115.671 20.1682 115.156 19.6266C114.64 19.0701 114.238 18.4082 113.95 17.641C113.662 16.8588 113.518 16.0014 113.518 15.0687C113.518 14.136 113.662 13.2861 113.95 12.5189C114.253 11.7518 114.663 11.0974 115.179 10.5559C115.709 10.0143 116.331 9.59315 117.044 9.29228C117.772 8.99141 118.561 8.841 119.41 8.841C120.275 8.841 121.064 8.99141 121.777 9.29228C122.505 9.59315 123.126 10.0143 123.642 10.5559C124.158 11.0974 124.56 11.7518 124.848 12.5189C125.136 13.2861 125.28 14.136 125.28 15.0687ZM121.822 15.0687C121.822 14.0307 121.61 13.2184 121.185 12.6318C120.776 12.0301 120.184 11.7292 119.41 11.7292C118.637 11.7292 118.038 12.0301 117.613 12.6318C117.188 13.2184 116.976 14.0307 116.976 15.0687C116.976 16.1066 117.188 16.934 117.613 17.5507C118.038 18.1524 118.637 18.4533 119.41 18.4533C120.184 18.4533 120.776 18.1524 121.185 17.5507C121.61 16.934 121.822 16.1066 121.822 15.0687ZM131.342 18.6113C131.964 18.6113 132.404 18.5511 132.661 18.4307C132.919 18.3104 133.048 18.0773 133.048 17.7313C133.048 17.4605 132.882 17.2273 132.547 17.0318C132.214 16.8212 131.706 16.588 131.023 16.3323C130.493 16.1367 130.007 15.9337 129.567 15.7231C129.142 15.5124 128.778 15.2642 128.475 14.9784C128.172 14.6776 127.937 14.3241 127.77 13.9179C127.603 13.5118 127.519 13.0229 127.519 12.4513C127.519 11.3381 127.937 10.4581 128.771 9.81125C129.605 9.16443 130.75 8.841 132.206 8.841C132.934 8.841 133.632 8.90869 134.299 9.04407C134.967 9.16443 135.498 9.29982 135.892 9.45023L135.3 12.0677C134.906 11.9323 134.474 11.8119 134.004 11.7066C133.549 11.6014 133.033 11.5487 132.456 11.5487C131.395 11.5487 130.864 11.842 130.864 12.4287C130.864 12.5641 130.887 12.6844 130.932 12.7897C130.978 12.895 131.069 13.0003 131.205 13.1056C131.342 13.1959 131.524 13.3012 131.751 13.4215C131.994 13.5268 132.297 13.6472 132.661 13.7825C133.405 14.0533 134.019 14.3241 134.504 14.5948C134.99 14.8506 135.369 15.1364 135.642 15.4523C135.93 15.7532 136.127 16.0916 136.233 16.4677C136.355 16.8437 136.415 17.28 136.415 17.7764C136.415 18.9497 135.968 19.8373 135.073 20.4389C134.193 21.0406 132.942 21.3415 131.319 21.3415C130.257 21.3415 129.37 21.2513 128.657 21.0707C127.959 20.8902 127.474 20.7398 127.201 20.6195L127.77 17.8892C128.346 18.1148 128.938 18.2954 129.544 18.4307C130.151 18.5511 130.75 18.6113 131.342 18.6113ZM142.384 18.6113C143.006 18.6113 143.446 18.5511 143.704 18.4307C143.962 18.3104 144.091 18.0773 144.091 17.7313C144.091 17.4605 143.924 17.2273 143.59 17.0318C143.256 16.8212 142.748 16.588 142.066 16.3323C141.535 16.1367 141.049 15.9337 140.61 15.7231C140.185 15.5124 139.821 15.2642 139.518 14.9784C139.214 14.6776 138.979 14.3241 138.812 13.9179C138.645 13.5118 138.562 13.0229 138.562 12.4513C138.562 11.3381 138.979 10.4581 139.814 9.81125C140.648 9.16443 141.793 8.841 143.249 8.841C143.977 8.841 144.675 8.90869 145.342 9.04407C146.009 9.16443 146.54 9.29982 146.935 9.45023L146.343 12.0677C145.949 11.9323 145.516 11.8119 145.046 11.7066C144.591 11.6014 144.075 11.5487 143.499 11.5487C142.437 11.5487 141.907 11.842 141.907 12.4287C141.907 12.5641 141.929 12.6844 141.975 12.7897C142.02 12.895 142.111 13.0003 142.248 13.1056C142.384 13.1959 142.566 13.3012 142.794 13.4215C143.037 13.5268 143.34 13.6472 143.704 13.7825C144.447 14.0533 145.061 14.3241 145.547 14.5948C146.032 14.8506 146.412 15.1364 146.685 15.4523C146.973 15.7532 147.17 16.0916 147.276 16.4677C147.397 16.8437 147.458 17.28 147.458 17.7764C147.458 18.9497 147.01 19.8373 146.116 20.4389C145.236 21.0406 143.984 21.3415 142.362 21.3415C141.3 21.3415 140.412 21.2513 139.7 21.0707C139.002 20.8902 138.517 20.7398 138.244 20.6195L138.812 17.8892C139.388 18.1148 139.98 18.2954 140.587 18.4307C141.194 18.5511 141.793 18.6113 142.384 18.6113ZM108.023 64.4123C108.023 63.3743 107.788 62.5472 107.317 61.9302C106.847 61.2984 106.149 60.9825 105.224 60.9825C104.921 60.9825 104.641 60.9974 104.383 61.0277C104.124 61.0425 103.912 61.0651 103.745 61.0954V67.1651C103.958 67.3005 104.231 67.4133 104.565 67.5036C104.914 67.5938 105.262 67.6389 105.611 67.6389C107.219 67.6389 108.023 66.5636 108.023 64.4123ZM111.481 64.322C111.481 65.2395 111.367 66.0743 111.14 66.8266C110.912 67.5789 110.579 68.2256 110.139 68.7672C109.699 69.3087 109.153 69.7297 108.501 70.0307C107.849 70.3318 107.098 70.482 106.248 70.482C105.778 70.482 105.338 70.4369 104.929 70.3466C104.519 70.2564 104.124 70.1287 103.745 69.9631V74.4307H100.355V58.7938C100.659 58.7036 101.008 58.621 101.402 58.5456C101.797 58.4554 102.206 58.38 102.631 58.32C103.071 58.26 103.51 58.2148 103.95 58.1846C104.405 58.1395 104.838 58.1169 105.247 58.1169C106.233 58.1169 107.113 58.2672 107.886 58.5682C108.66 58.8538 109.312 59.2677 109.843 59.8092C110.374 60.3359 110.776 60.9825 111.049 61.7497C111.337 62.5169 111.481 63.3743 111.481 64.322ZM118.864 70.482C117.878 70.4672 117.074 70.3615 116.453 70.1661C115.846 69.9707 115.361 69.7 114.997 69.3538C114.648 68.9928 114.405 68.5641 114.269 68.0677C114.147 67.5564 114.087 66.9846 114.087 66.3528V53.2882L117.477 52.7466V65.6759C117.477 65.9769 117.499 66.2477 117.545 66.4882C117.59 66.7287 117.674 66.9318 117.795 67.0974C117.932 67.2631 118.121 67.3984 118.364 67.5036C118.606 67.6087 118.933 67.6764 119.342 67.7066L118.864 70.482ZM126.192 67.9097C126.525 67.9097 126.844 67.902 127.147 67.8872C127.451 67.8723 127.693 67.8497 127.875 67.8195V65.2697C127.739 65.2395 127.534 65.2097 127.261 65.1795C126.988 65.1492 126.738 65.1343 126.51 65.1343C126.192 65.1343 125.888 65.1569 125.6 65.202C125.327 65.2323 125.084 65.3 124.872 65.4051C124.659 65.5102 124.493 65.6533 124.371 65.8338C124.25 66.0143 124.189 66.24 124.189 66.5107C124.189 67.0374 124.364 67.4056 124.713 67.6164C125.077 67.8118 125.569 67.9097 126.192 67.9097ZM125.918 58.0718C126.92 58.0718 127.754 58.1846 128.421 58.4102C129.089 58.6359 129.619 58.9595 130.014 59.3805C130.423 59.8015 130.711 60.3133 130.878 60.9148C131.045 61.5164 131.129 62.1861 131.129 62.923V69.9179C130.643 70.023 129.968 70.1436 129.104 70.279C128.239 70.4292 127.193 70.5046 125.964 70.5046C125.19 70.5046 124.485 70.4369 123.848 70.3015C123.226 70.1661 122.688 69.9482 122.233 69.6471C121.778 69.3313 121.429 68.9251 121.186 68.4287C120.944 67.9323 120.822 67.323 120.822 66.601C120.822 65.9092 120.959 65.3225 121.232 64.841C121.52 64.3595 121.899 63.9759 122.369 63.6902C122.839 63.4046 123.378 63.2015 123.985 63.081C124.591 62.9456 125.221 62.8779 125.873 62.8779C126.313 62.8779 126.7 62.9005 127.033 62.9456C127.382 62.9759 127.663 63.021 127.875 63.081V62.7651C127.875 62.1933 127.701 61.7348 127.352 61.3887C127.003 61.0425 126.396 60.8697 125.532 60.8697C124.955 60.8697 124.386 60.9148 123.825 61.0051C123.264 61.0805 122.779 61.1933 122.369 61.3436L121.937 58.6359C122.134 58.5759 122.377 58.5154 122.665 58.4554C122.969 58.38 123.294 58.32 123.643 58.2748C123.992 58.2148 124.356 58.1697 124.735 58.1395C125.13 58.0943 125.524 58.0718 125.918 58.0718ZM134.194 58.7938C134.77 58.6282 135.513 58.4779 136.424 58.3425C137.334 58.1923 138.289 58.1169 139.29 58.1169C140.307 58.1169 141.149 58.2523 141.816 58.5231C142.498 58.7789 143.037 59.1472 143.431 59.6287C143.826 60.1102 144.106 60.6815 144.273 61.3436C144.44 62.0056 144.523 62.7425 144.523 63.5548V70.2564H141.133V63.961C141.133 62.8779 140.989 62.1107 140.701 61.6595C140.413 61.2082 139.875 60.9825 139.085 60.9825C138.843 60.9825 138.585 60.9974 138.312 61.0277C138.039 61.0425 137.796 61.0651 137.584 61.0954V70.2564H134.194V58.7938ZM147.592 58.7938C148.168 58.6282 148.912 58.4779 149.822 58.3425C150.732 58.1923 151.687 58.1169 152.688 58.1169C153.704 58.1169 154.546 58.2523 155.214 58.5231C155.896 58.7789 156.435 59.1472 156.829 59.6287C157.223 60.1102 157.504 60.6815 157.671 61.3436C157.837 62.0056 157.921 62.7425 157.921 63.5548V70.2564H154.531V63.961C154.531 62.8779 154.387 62.1107 154.099 61.6595C153.81 61.2082 153.272 60.9825 152.484 60.9825C152.241 60.9825 151.983 60.9974 151.71 61.0277C151.437 61.0425 151.194 61.0651 150.982 61.0954V70.2564H147.592V58.7938ZM160.421 64.4123C160.421 63.3595 160.58 62.4415 160.899 61.6595C161.232 60.862 161.664 60.2005 162.195 59.6738C162.726 59.1472 163.333 58.7487 164.016 58.4779C164.713 58.2072 165.426 58.0718 166.154 58.0718C167.853 58.0718 169.195 58.5907 170.181 59.6287C171.167 60.6518 171.66 62.1636 171.66 64.1641C171.66 64.3595 171.652 64.5779 171.637 64.8184C171.622 65.0441 171.607 65.2472 171.592 65.4277H163.902C163.977 66.1195 164.304 66.6687 164.88 67.0748C165.456 67.481 166.23 67.6841 167.201 67.6841C167.822 67.6841 168.429 67.6313 169.021 67.5261C169.627 67.4056 170.12 67.2631 170.5 67.0974L170.955 69.8277C170.773 69.9179 170.53 70.0082 170.227 70.0984C169.923 70.1887 169.582 70.2641 169.203 70.3241C168.839 70.3995 168.444 70.4595 168.02 70.5046C167.595 70.5497 167.17 70.5723 166.746 70.5723C165.669 70.5723 164.728 70.4143 163.925 70.0984C163.136 69.7825 162.476 69.3538 161.945 68.8123C161.429 68.2559 161.042 67.6015 160.785 66.8492C160.542 66.0969 160.421 65.2846 160.421 64.4123ZM168.384 63.1261C168.368 62.8405 168.316 62.562 168.225 62.2913C168.149 62.0205 168.02 61.78 167.838 61.5692C167.671 61.3584 167.451 61.1856 167.178 61.0502C166.92 60.9148 166.594 60.8472 166.2 60.8472C165.82 60.8472 165.494 60.9148 165.221 61.0502C164.948 61.1707 164.721 61.3359 164.539 61.5466C164.357 61.7574 164.213 62.0056 164.107 62.2913C164.016 62.562 163.947 62.8405 163.902 63.1261H168.384ZM181.488 61.3661C181.185 61.2907 180.829 61.2159 180.419 61.1405C180.009 61.0502 179.569 61.0051 179.099 61.0051C178.887 61.0051 178.629 61.0277 178.326 61.0728C178.038 61.1031 177.818 61.1405 177.666 61.1856V70.2564H174.276V59.0195C174.883 58.8087 175.596 58.6133 176.415 58.4328C177.249 58.2374 178.174 58.1395 179.19 58.1395C179.372 58.1395 179.592 58.1543 179.85 58.1846C180.108 58.1995 180.366 58.2297 180.624 58.2748C180.882 58.3051 181.139 58.3502 181.397 58.4102C181.655 58.4554 181.875 58.5154 182.057 58.5907L181.488 61.3661Z"
		fill="#EFF9FA" />
	<path
		d="M108.023 39.7969C108.023 38.759 107.788 37.9316 107.317 37.3149C106.847 36.6831 106.149 36.3672 105.224 36.3672C104.921 36.3672 104.641 36.3822 104.383 36.4123C104.124 36.4273 103.912 36.4499 103.745 36.48V42.5497C103.958 42.6851 104.231 42.798 104.565 42.8882C104.914 42.9785 105.262 43.0236 105.611 43.0236C107.219 43.0236 108.023 41.9481 108.023 39.7969ZM111.481 39.7067C111.481 40.6243 111.367 41.4591 111.14 42.2113C110.912 42.9634 110.579 43.6103 110.139 44.1518C109.699 44.6933 109.153 45.1145 108.501 45.4154C107.849 45.7163 107.098 45.8667 106.248 45.8667C105.778 45.8667 105.338 45.8215 104.929 45.7313C104.519 45.641 104.124 45.5132 103.745 45.3477V49.8154H100.355V34.1785C100.659 34.0882 101.008 34.0055 101.402 33.9303C101.797 33.84 102.206 33.7648 102.631 33.7046C103.071 33.6445 103.51 33.5993 103.95 33.5692C104.405 33.5241 104.838 33.5015 105.247 33.5015C106.233 33.5015 107.113 33.652 107.886 33.9528C108.66 34.2386 109.312 34.6523 109.843 35.1939C110.374 35.7204 110.776 36.3672 111.049 37.1344C111.337 37.9015 111.481 38.759 111.481 39.7067ZM113.518 39.7969C113.518 38.744 113.677 37.8263 113.996 37.0441C114.329 36.2468 114.761 35.585 115.292 35.0585C115.823 34.532 116.43 34.1333 117.113 33.8626C117.81 33.5918 118.523 33.4564 119.251 33.4564C120.95 33.4564 122.292 33.9754 123.278 35.0133C124.264 36.0363 124.757 37.5481 124.757 39.5487C124.757 39.7443 124.749 39.9624 124.734 40.2031C124.719 40.4287 124.704 40.6318 124.689 40.8123H116.999C117.074 41.5043 117.401 42.0533 117.977 42.4595C118.553 42.8656 119.327 43.0687 120.298 43.0687C120.919 43.0687 121.526 43.0161 122.118 42.9108C122.724 42.7904 123.217 42.6475 123.597 42.4821L124.052 45.2123C123.87 45.3026 123.627 45.3928 123.324 45.4831C123.02 45.5733 122.679 45.6486 122.3 45.7087C121.936 45.784 121.541 45.8441 121.117 45.8892C120.692 45.9344 120.267 45.9569 119.843 45.9569C118.766 45.9569 117.825 45.799 117.022 45.4831C116.232 45.1672 115.573 44.7385 115.042 44.1969C114.526 43.6404 114.139 42.986 113.882 42.2339C113.639 41.4817 113.518 40.6694 113.518 39.7969ZM121.481 38.5108C121.465 38.225 121.413 37.9467 121.322 37.6759C121.246 37.4051 121.117 37.1645 120.935 36.9539C120.768 36.7432 120.548 36.5703 120.275 36.4349C120.017 36.2995 119.691 36.2318 119.297 36.2318C118.917 36.2318 118.591 36.2995 118.318 36.4349C118.045 36.5552 117.818 36.7207 117.636 36.9313C117.454 37.1419 117.31 37.3901 117.204 37.6759C117.113 37.9467 117.044 38.225 116.999 38.5108H121.481ZM134.585 36.7508C134.282 36.6755 133.926 36.6004 133.516 36.5251C133.106 36.4349 132.666 36.3897 132.196 36.3897C131.984 36.3897 131.726 36.4123 131.423 36.4574C131.135 36.4875 130.915 36.5251 130.763 36.5703V45.641H127.373V34.4041C127.98 34.1935 128.693 33.998 129.512 33.8174C130.346 33.6219 131.271 33.5241 132.287 33.5241C132.469 33.5241 132.689 33.5391 132.947 33.5692C133.205 33.5843 133.463 33.6144 133.721 33.6595C133.979 33.6896 134.236 33.7347 134.494 33.7949C134.752 33.84 134.972 33.9002 135.154 33.9754L134.585 36.7508ZM140.407 43.2267C141.029 43.2267 141.469 43.1665 141.727 43.0462C141.984 42.9258 142.114 42.6927 142.114 42.3467C142.114 42.0759 141.946 41.8427 141.613 41.6472C141.279 41.4366 140.771 41.2034 140.089 40.9477C139.558 40.7522 139.072 40.5491 138.633 40.3385C138.207 40.1279 137.843 39.8796 137.54 39.5939C137.237 39.293 137.002 38.9395 136.835 38.5333C136.668 38.1272 136.585 37.6383 136.585 37.0667C136.585 35.9535 137.002 35.0735 137.836 34.4267C138.67 33.7799 139.816 33.4564 141.272 33.4564C142 33.4564 142.697 33.5241 143.365 33.6595C144.032 33.7799 144.563 33.9152 144.957 34.0656L144.366 36.6831C143.971 36.5477 143.539 36.4273 143.069 36.3221C142.614 36.2168 142.098 36.1641 141.522 36.1641C140.46 36.1641 139.929 36.4574 139.929 37.0441C139.929 37.1795 139.952 37.2999 139.998 37.4051C140.043 37.5104 140.134 37.6157 140.271 37.721C140.407 37.8113 140.589 37.9166 140.817 38.0369C141.059 38.1422 141.363 38.2626 141.727 38.398C142.47 38.6687 143.084 38.9395 143.57 39.2103C144.055 39.466 144.434 39.7518 144.707 40.0677C144.995 40.3686 145.192 40.707 145.299 41.0831C145.42 41.4591 145.481 41.8954 145.481 42.3918C145.481 43.5651 145.033 44.4527 144.138 45.0544C143.258 45.6561 142.007 45.9569 140.384 45.9569C139.322 45.9569 138.435 45.8667 137.722 45.6862C137.024 45.5056 136.539 45.3552 136.266 45.2349L136.835 42.5046C137.411 42.7303 138.003 42.9108 138.61 43.0462C139.216 43.1665 139.816 43.2267 140.407 43.2267ZM159.208 39.6841C159.208 40.6168 159.071 41.4742 158.798 42.2564C158.525 43.0236 158.131 43.6855 157.615 44.2421C157.1 44.7836 156.478 45.2048 155.75 45.5056C155.036 45.8065 154.233 45.9569 153.338 45.9569C152.458 45.9569 151.654 45.8065 150.926 45.5056C150.213 45.2048 149.599 44.7836 149.083 44.2421C148.568 43.6855 148.165 43.0236 147.877 42.2564C147.589 41.4742 147.445 40.6168 147.445 39.6841C147.445 38.7514 147.589 37.9015 147.877 37.1344C148.181 36.3672 148.59 35.7128 149.106 35.1713C149.637 34.6297 150.259 34.2086 150.972 33.9077C151.7 33.6068 152.488 33.4564 153.338 33.4564C154.202 33.4564 154.991 33.6068 155.704 33.9077C156.432 34.2086 157.054 34.6297 157.57 35.1713C158.085 35.7128 158.487 36.3672 158.775 37.1344C159.063 37.9015 159.208 38.7514 159.208 39.6841ZM155.75 39.6841C155.75 38.6462 155.537 37.8339 155.112 37.2472C154.703 36.6455 154.111 36.3446 153.338 36.3446C152.564 36.3446 151.965 36.6455 151.54 37.2472C151.116 37.8339 150.903 38.6462 150.903 39.6841C150.903 40.7221 151.116 41.5494 151.54 42.1662C151.965 42.7679 152.564 43.0687 153.338 43.0687C154.111 43.0687 154.703 42.7679 155.112 42.1662C155.537 41.5494 155.75 40.7221 155.75 39.6841ZM161.834 34.1785C162.41 34.013 163.154 33.8626 164.064 33.7272C164.974 33.5768 165.929 33.5015 166.93 33.5015C167.946 33.5015 168.788 33.6369 169.456 33.9077C170.138 34.1634 170.677 34.532 171.071 35.0133C171.465 35.4947 171.746 36.0663 171.913 36.7282C172.079 37.3901 172.163 38.1272 172.163 38.9395V45.641H168.773V39.3456C168.773 38.2626 168.629 37.4954 168.341 37.0441C168.052 36.5928 167.514 36.3672 166.726 36.3672C166.483 36.3672 166.225 36.3822 165.952 36.4123C165.679 36.4273 165.436 36.4499 165.224 36.48V45.641H161.834V34.1785ZM179.805 43.2944C180.138 43.2944 180.457 43.2868 180.76 43.2718C181.063 43.2568 181.306 43.2342 181.488 43.2041V40.6544C181.352 40.6243 181.147 40.5942 180.874 40.5641C180.601 40.534 180.351 40.519 180.123 40.519C179.805 40.519 179.501 40.5415 179.213 40.5867C178.94 40.6168 178.697 40.6845 178.485 40.7898C178.273 40.895 178.106 41.038 177.985 41.2185C177.863 41.399 177.803 41.6246 177.803 41.8954C177.803 42.4219 177.977 42.7904 178.326 43.001C178.69 43.1966 179.183 43.2944 179.805 43.2944ZM179.532 33.4564C180.533 33.4564 181.367 33.5692 182.034 33.7949C182.701 34.0205 183.232 34.344 183.627 34.7651C184.037 35.1863 184.325 35.6978 184.492 36.2995C184.658 36.9012 184.742 37.5706 184.742 38.3077V45.3026C184.256 45.4079 183.581 45.5282 182.717 45.6636C181.852 45.814 180.806 45.8892 179.577 45.8892C178.804 45.8892 178.098 45.8215 177.461 45.6862C176.839 45.5508 176.301 45.3327 175.846 45.0318C175.391 44.7159 175.042 44.3097 174.799 43.8133C174.556 43.3169 174.435 42.7077 174.435 41.9856C174.435 41.2937 174.572 40.707 174.845 40.2256C175.133 39.7443 175.512 39.3607 175.982 39.0749C176.452 38.7891 176.991 38.586 177.598 38.4656C178.204 38.3303 178.834 38.2626 179.486 38.2626C179.926 38.2626 180.312 38.2851 180.647 38.3303C180.995 38.3604 181.276 38.4055 181.488 38.4656V38.1497C181.488 37.5781 181.314 37.1193 180.965 36.7733C180.616 36.4273 180.009 36.2544 179.145 36.2544C178.568 36.2544 178 36.2995 177.439 36.3897C176.877 36.465 176.392 36.5778 175.982 36.7282L175.55 34.0205C175.747 33.9604 175.99 33.9002 176.278 33.84C176.581 33.7648 176.907 33.7046 177.257 33.6595C177.605 33.5993 177.969 33.5542 178.349 33.5241C178.743 33.479 179.137 33.4564 179.532 33.4564ZM192.585 45.8667C191.599 45.8516 190.795 45.7463 190.173 45.5508C189.567 45.3552 189.081 45.0845 188.717 44.7385C188.368 44.3774 188.126 43.9487 187.989 43.4523C187.868 42.9409 187.807 42.3692 187.807 41.7374V28.6728L191.197 28.1313V41.0605C191.197 41.3614 191.22 41.6322 191.265 41.8728C191.311 42.1135 191.394 42.3166 191.516 42.4821C191.652 42.6475 191.842 42.7829 192.084 42.8882C192.327 42.9935 192.653 43.0612 193.063 43.0913L192.585 45.8667Z"
		fill="#38BBA1" />
	<path fill-rule="evenodd" clip-rule="evenodd"
		d="M8.4526 0H50.2118C56.1945 0 61.3043 3.70283 63.3245 8.91923C61.765 8.32826 60.0721 8.00441 58.3026 8.00441H16.5439C11.8753 8.00441 8.09131 11.7475 8.09131 16.3656V63.1969C8.09131 63.3139 8.09374 63.4308 8.09855 63.5467C3.59422 63.3631 0 59.6933 0 55.1928V8.36118C0 3.7431 3.78402 0 8.4526 0ZM21.4053 50.9392V56.3477C21.4053 57.7826 22.5814 58.9462 24.0324 58.9462H53.5553C57.1004 58.9462 59.9759 56.1021 59.9759 52.5949C59.9759 49.0853 57.1004 46.2435 53.5553 46.2412H51.6645C50.9289 48.947 48.431 50.9392 45.4636 50.9392H21.4053ZM21.4053 25.5866V30.9923C21.4053 32.4275 22.5814 33.591 24.0324 33.591H53.5553C57.1004 33.591 59.9759 30.7467 59.9759 27.2396C59.9759 23.7326 57.1004 20.8883 53.5553 20.8883H51.6645C50.9289 23.5942 48.431 25.5866 45.4636 25.5866H21.4053Z"
		fill="#38BBA1" />
	<path
		d="M67.1734 16.4103H25.4989C20.8398 16.4103 17.0635 20.1555 17.0635 24.7762V71.6339C17.0635 76.2549 20.8398 80 25.4989 80H67.1734C74.909 80 81.1817 73.781 81.1817 66.1072V30.3034C81.1817 22.6293 74.909 16.4103 67.1734 16.4103ZM68.8426 61.0236C68.8426 64.5328 65.9733 67.3785 62.4349 67.3785H32.9698C31.5218 67.3785 30.348 66.2144 30.348 64.7785V57.2667C30.348 55.8303 31.5218 54.6662 32.9698 54.6662H62.4323C65.9733 54.6687 68.8426 57.5144 68.8426 61.0236ZM68.8426 35.6563C68.8426 39.1654 65.9733 42.0113 62.4349 42.0113H32.9698C31.5218 42.0113 30.348 40.8471 30.348 39.4111V31.8993C30.348 30.4631 31.5218 29.299 32.9698 29.299H62.4323C65.9733 29.3014 68.8426 32.1473 68.8426 35.6563Z"
		fill="#EFF9FA" />
</svg>