<svg width="243" height="656" viewBox="0 0 243 656" fill="none" xmlns="http://www.w3.org/2000/svg">
<path opacity="0.5" d="M191.196 180.628L-77.9552 9.86231C-108.046 -9.22897 -146.851 2.35868 -164.636 35.7461L-345 374.329C-362.784 407.715 -352.81 450.25 -322.72 469.342L-53.5693 640.108C-3.60779 671.806 60.8432 652.574 90.3819 597.123L159.288 467.771L228.194 338.418C257.733 282.967 241.17 212.336 191.196 180.628ZM29.5288 509.393C16.0222 534.748 -13.4659 543.551 -36.3157 529.053L-225.881 408.781C-235.233 402.848 -238.334 389.63 -232.806 379.252L-203.893 324.975C-198.365 314.597 -186.303 310.995 -176.951 316.928L12.6144 437.2C35.4642 451.698 43.0453 484.02 29.5288 509.393ZM127.18 326.08C113.673 351.436 84.1842 360.239 61.3343 345.742L-128.231 225.47C-137.583 219.537 -140.683 206.315 -135.155 195.939L-106.241 141.66C-100.713 131.284 -88.6518 127.682 -79.2998 133.615L110.265 253.887C133.106 268.402 140.686 300.725 127.18 326.08Z" fill="#D1EDF7"/>
</svg>
