<svg width="172" height="670" viewBox="0 0 172 670" fill="none" xmlns="http://www.w3.org/2000/svg">
<path opacity="0.5" d="M29.1432 268.365L243.201 21.6495C267.132 -5.9327 307.356 -6.7666 333.052 19.7867L593.632 289.064C619.327 315.617 620.756 359.495 596.825 387.077L382.768 633.792C343.033 679.589 276.229 680.987 233.552 636.886L134.001 534.012L34.4477 431.136C-8.22828 387.036 -10.6022 314.174 29.1432 268.365ZM269.248 533.981C288.762 554.146 319.328 553.51 337.5 532.564L488.263 358.801C495.7 350.228 495.258 336.592 487.271 328.339L445.498 285.172C437.512 276.919 425.009 277.177 417.571 285.75L266.808 459.513C248.636 480.458 249.72 513.801 269.248 533.981ZM128.167 388.191C147.681 408.356 178.247 407.721 196.42 386.776L347.183 213.012C354.62 204.439 354.175 190.801 346.19 182.548L304.416 139.38C296.43 131.128 283.927 131.387 276.489 139.959L125.727 313.723C107.568 334.682 108.653 368.025 128.167 388.191Z" fill="#D1EDF7"/>
</svg>
