<svg width="156" height="111" viewBox="0 0 156 111" fill="none" xmlns="http://www.w3.org/2000/svg">
<path d="M96.1536 109.353C96.1536 108.451 96.8765 107.91 97.5995 107.91C98.5032 107.91 99.0454 108.632 99.0454 109.353C99.0454 110.255 98.3224 110.796 97.5995 110.796C96.8765 110.976 96.1536 110.255 96.1536 109.353Z" fill="#004D70"/>
<path d="M72.115 109.353C72.115 108.451 72.838 107.91 73.5609 107.91C74.4646 107.91 75.0068 108.632 75.0068 109.353C75.0068 110.255 74.2839 110.796 73.5609 110.796C72.838 110.976 72.115 110.255 72.115 109.353Z" fill="#004D70"/>
<path d="M48.0771 109.353C48.0771 108.451 48.8001 107.91 49.5231 107.91C50.4268 107.91 50.969 108.632 50.969 109.353C50.969 110.255 50.246 110.796 49.5231 110.796C48.8001 110.976 48.0771 110.255 48.0771 109.353Z" fill="#004D70"/>
<path d="M24.0386 109.353C24.0386 108.451 24.7615 107.91 25.4845 107.91C26.2075 107.91 26.9304 108.632 26.9304 109.353C26.9304 110.255 26.2075 110.796 25.4845 110.796C24.7615 110.796 24.0386 110.255 24.0386 109.353Z" fill="#004D70"/>
<path d="M0 109.353C0 108.451 0.72296 107.91 1.44592 107.91C2.34962 107.91 2.89184 108.632 2.89184 109.353C2.89184 110.255 2.16888 110.796 1.44592 110.796C0.72296 110.976 0 110.255 0 109.353Z" fill="#004D70"/>
<path d="M96.1536 87.892C96.1536 86.9903 96.8765 86.4492 97.5995 86.4492C98.5032 86.4492 99.0454 87.1706 99.0454 87.892C99.0454 88.7937 98.3224 89.3347 97.5995 89.3347C96.8765 89.5151 96.1536 88.7937 96.1536 87.892Z" fill="#004D70"/>
<path d="M72.115 87.892C72.115 86.9903 72.838 86.4492 73.5609 86.4492C74.4646 86.4492 75.0068 87.1706 75.0068 87.892C75.0068 88.7937 74.2839 89.3347 73.5609 89.3347C72.838 89.5151 72.115 88.7937 72.115 87.892Z" fill="#004D70"/>
<path d="M48.0771 87.892C48.0771 86.9903 48.8001 86.4492 49.5231 86.4492C50.4268 86.4492 50.969 87.1706 50.969 87.892C50.969 88.7937 50.246 89.3347 49.5231 89.3347C48.8001 89.5151 48.0771 88.7937 48.0771 87.892Z" fill="#004D70"/>
<path d="M24.0386 87.892C24.0386 86.9903 24.7615 86.4492 25.4845 86.4492C26.2075 86.4492 26.9304 87.1706 26.9304 87.892C26.9304 88.7937 26.2075 89.3347 25.4845 89.3347C24.7615 89.3347 24.0386 88.7937 24.0386 87.892Z" fill="#004D70"/>
<path d="M0 87.892C0 86.9903 0.72296 86.4492 1.44592 86.4492C2.34962 86.4492 2.89184 87.1706 2.89184 87.892C2.89184 88.7937 2.16888 89.3347 1.44592 89.3347C0.72296 89.5151 0 88.7937 0 87.892Z" fill="#004D70"/>
<path d="M96.1536 66.431C96.1536 65.5293 96.8765 64.9883 97.5995 64.9883C98.5032 64.9883 99.0454 65.7097 99.0454 66.431C99.0454 67.1524 98.3224 67.8738 97.5995 67.8738C96.8765 68.0541 96.1536 67.3328 96.1536 66.431Z" fill="#004D70"/>
<path d="M73.7421 67.8738C74.5406 67.8738 75.188 67.2278 75.188 66.431C75.188 65.6342 74.5406 64.9883 73.7421 64.9883C72.9435 64.9883 72.2961 65.6342 72.2961 66.431C72.2961 67.2278 72.9435 67.8738 73.7421 67.8738Z" fill="#004D70"/>
<path d="M49.7035 67.8738C50.502 67.8738 51.1494 67.2278 51.1494 66.431C51.1494 65.6342 50.502 64.9883 49.7035 64.9883C48.9049 64.9883 48.2576 65.6342 48.2576 66.431C48.2576 67.2278 48.9049 67.8738 49.7035 67.8738Z" fill="#004D70"/>
<path d="M24.0386 66.431C24.0386 65.5293 24.7615 64.9883 25.4845 64.9883C26.2075 64.9883 26.9304 65.7097 26.9304 66.431C26.9304 67.1524 26.2075 67.8738 25.4845 67.8738C24.7615 67.8738 24.0386 67.3327 24.0386 66.431Z" fill="#004D70"/>
<path d="M0 66.431C0 65.5293 0.72296 64.9883 1.44592 64.9883C2.34962 64.9883 2.89184 65.7097 2.89184 66.431C2.89184 67.1524 2.34962 68.0541 1.44592 68.0541C0.72296 68.0541 0 67.3328 0 66.431Z" fill="#004D70"/>
<path d="M96.1536 45.1498C96.1536 44.2481 96.8765 43.707 97.5995 43.707C98.5032 43.707 99.0454 44.4284 99.0454 45.1498C99.0454 45.8712 98.3224 46.5925 97.5995 46.5925C96.8765 46.5925 96.1536 45.8712 96.1536 45.1498Z" fill="#004D70"/>
<path d="M73.7421 46.5925C74.5406 46.5925 75.188 45.9466 75.188 45.1498C75.188 44.353 74.5406 43.707 73.7421 43.707C72.9435 43.707 72.2961 44.353 72.2961 45.1498C72.2961 45.9466 72.9435 46.5925 73.7421 46.5925Z" fill="#004D70"/>
<path d="M49.7035 46.5925C50.502 46.5925 51.1494 45.9466 51.1494 45.1498C51.1494 44.353 50.502 43.707 49.7035 43.707C48.9049 43.707 48.2576 44.353 48.2576 45.1498C48.2576 45.9466 48.9049 46.5925 49.7035 46.5925Z" fill="#004D70"/>
<path d="M24.0386 45.1498C24.0386 44.2481 24.7615 43.707 25.4845 43.707C26.2075 43.707 26.9304 44.4284 26.9304 45.1498C26.9304 45.8712 26.2075 46.5925 25.4845 46.5925C24.7615 46.5925 24.0386 45.8712 24.0386 45.1498Z" fill="#004D70"/>
<path d="M0 45.1498C0 44.2481 0.72296 43.707 1.44592 43.707C2.34962 43.707 2.89184 44.4284 2.89184 45.1498C2.89184 45.8712 2.34962 46.5925 1.44592 46.5925C0.72296 46.5925 0 45.8712 0 45.1498Z" fill="#004D70"/>
<path d="M96.1536 23.6888C96.1536 22.7871 96.8765 22.2461 97.5995 22.2461C98.5032 22.2461 99.0454 22.9675 99.0454 23.6888C99.0454 24.4102 98.3224 25.1316 97.5995 25.1316C96.8765 25.1316 96.1536 24.4102 96.1536 23.6888Z" fill="#004D70"/>
<path d="M73.7421 25.1316C74.5406 25.1316 75.188 24.4857 75.188 23.6888C75.188 22.892 74.5406 22.2461 73.7421 22.2461C72.9435 22.2461 72.2961 22.892 72.2961 23.6888C72.2961 24.4857 72.9435 25.1316 73.7421 25.1316Z" fill="#004D70"/>
<path d="M49.7035 25.1316C50.502 25.1316 51.1494 24.4857 51.1494 23.6888C51.1494 22.892 50.502 22.2461 49.7035 22.2461C48.9049 22.2461 48.2576 22.892 48.2576 23.6888C48.2576 24.4857 48.9049 25.1316 49.7035 25.1316Z" fill="#004D70"/>
<path d="M24.0386 23.6888C24.0386 22.7871 24.7615 22.2461 25.4845 22.2461C26.2075 22.2461 26.9304 22.9675 26.9304 23.6888C26.9304 24.4102 26.2075 25.1316 25.4845 25.1316C24.7615 25.1316 24.0386 24.4102 24.0386 23.6888Z" fill="#004D70"/>
<path d="M0 23.6888C0 22.7871 0.72296 22.2461 1.44592 22.2461C2.34962 22.2461 2.89184 22.9675 2.89184 23.6888C2.89184 24.4102 2.34962 25.1316 1.44592 25.1316C0.72296 25.1316 0 24.4102 0 23.6888Z" fill="#004D70"/>
<path d="M96.1536 2.22791C96.1536 1.32619 96.8765 0.785156 97.5995 0.785156C98.5032 0.785156 99.0454 1.50653 99.0454 2.22791C99.0454 3.12963 98.3224 3.67066 97.5995 3.67066C96.8765 3.67066 96.1536 2.94928 96.1536 2.22791Z" fill="#004D70"/>
<path d="M72.115 2.22856C72.115 1.32684 72.838 0.605469 73.7417 0.605469C74.6454 0.605469 75.1876 1.32684 75.1876 2.04822C75.1876 2.94994 74.4646 3.49097 73.7417 3.49097C72.838 3.67132 72.115 2.94994 72.115 2.22856Z" fill="#004D70"/>
<path d="M48.0771 2.22839C48.0771 1.32667 48.8001 0.785633 49.5231 0.785633C50.4268 0.605289 51.1497 1.32667 51.1497 2.22839C51.1497 3.13011 50.4268 3.67114 49.7038 3.67114C48.8001 3.67114 48.0771 2.94976 48.0771 2.22839Z" fill="#004D70"/>
<path d="M24.0386 2.22856C24.0386 1.32684 24.7615 0.605469 25.6652 0.605469C26.5689 0.605469 27.1112 1.32684 27.1112 2.04822C27.1112 2.94994 26.3882 3.49097 25.6652 3.49097C24.9423 3.49097 24.0386 2.94994 24.0386 2.22856Z" fill="#004D70"/>
<path d="M0 2.22857C0 1.32684 0.72296 0.605469 1.44592 0.605469C2.34962 0.605469 3.07258 1.32684 3.07258 2.22857C3.07258 3.13029 2.34962 3.67132 1.62666 3.67132C0.72296 3.67132 0 2.94994 0 2.22857Z" fill="#004D70"/>
<path d="M142.084 109.353C142.084 108.451 142.807 107.91 143.53 107.91C144.253 107.91 144.976 108.632 144.976 109.353C144.976 110.255 144.253 110.796 143.53 110.796C142.807 110.796 142.084 110.255 142.084 109.353Z" fill="#004D70"/>
<path d="M118.045 109.353C118.045 108.451 118.768 107.91 119.491 107.91C120.395 107.91 120.937 108.632 120.937 109.353C120.937 110.255 120.214 110.796 119.491 110.796C118.768 110.976 118.045 110.255 118.045 109.353Z" fill="#004D70"/>
<path d="M142.084 87.892C142.084 86.9903 142.807 86.4492 143.53 86.4492C144.253 86.4492 144.976 87.1706 144.976 87.892C144.976 88.7937 144.253 89.3347 143.53 89.3347C142.807 89.3347 142.084 88.7937 142.084 87.892Z" fill="#004D70"/>
<path d="M118.045 87.892C118.045 86.9903 118.768 86.4492 119.491 86.4492C120.395 86.4492 120.937 87.1706 120.937 87.892C120.937 88.7937 120.214 89.3347 119.491 89.3347C118.768 89.5151 118.045 88.7937 118.045 87.892Z" fill="#004D70"/>
<path d="M142.084 66.431C142.084 65.5293 142.807 64.9883 143.53 64.9883C144.253 64.9883 144.976 65.7097 144.976 66.431C144.976 67.1524 144.253 67.8738 143.53 67.8738C142.807 67.8738 142.084 67.3327 142.084 66.431Z" fill="#004D70"/>
<path d="M118.045 66.431C118.045 65.5293 118.768 64.9883 119.491 64.9883C120.395 64.9883 120.937 65.7097 120.937 66.431C120.937 67.1524 120.395 68.0541 119.491 68.0541C118.768 68.0541 118.045 67.3328 118.045 66.431Z" fill="#004D70"/>
<path d="M142.084 45.1498C142.084 44.2481 142.807 43.707 143.53 43.707C144.253 43.707 144.976 44.4284 144.976 45.1498C144.976 45.8712 144.253 46.5925 143.53 46.5925C142.807 46.5925 142.084 45.8712 142.084 45.1498Z" fill="#004D70"/>
<path d="M118.045 45.1498C118.045 44.2481 118.768 43.707 119.491 43.707C120.395 43.707 120.937 44.4284 120.937 45.1498C120.937 45.8712 120.395 46.5925 119.491 46.5925C118.768 46.5925 118.045 45.8712 118.045 45.1498Z" fill="#004D70"/>
<path d="M142.084 23.6888C142.084 22.7871 142.807 22.2461 143.53 22.2461C144.253 22.2461 144.976 22.9675 144.976 23.6888C144.976 24.4102 144.253 25.1316 143.53 25.1316C142.807 25.1316 142.084 24.4102 142.084 23.6888Z" fill="#004D70"/>
<path d="M118.045 23.6888C118.045 22.7871 118.768 22.2461 119.491 22.2461C120.395 22.2461 120.937 22.9675 120.937 23.6888C120.937 24.4102 120.395 25.1316 119.491 25.1316C118.768 25.1316 118.045 24.4102 118.045 23.6888Z" fill="#004D70"/>
<path d="M142.084 2.22856C142.084 1.32684 142.807 0.605469 143.711 0.605469C144.614 0.605469 145.157 1.32684 145.157 2.04822C145.157 2.94994 144.434 3.49097 143.711 3.49097C142.988 3.49097 142.084 2.94994 142.084 2.22856Z" fill="#004D70"/>
<path d="M118.045 2.22857C118.045 1.32684 118.768 0.605469 119.491 0.605469C120.395 0.605469 121.118 1.32684 121.118 2.22857C121.118 3.13029 120.395 3.67132 119.672 3.67132C118.768 3.67132 118.045 2.94994 118.045 2.22857Z" fill="#004D70"/>
</svg>
