<?xml version="1.0" encoding="UTF-8" standalone="no"?>
<!DOCTYPE svg PUBLIC "-//W3C//DTD SVG 1.1//EN" "http://www.w3.org/Graphics/SVG/1.1/DTD/svg11.dtd">
<svg width="100%" height="100%" viewBox="0 0 812 812" version="1.1" xmlns="http://www.w3.org/2000/svg" xmlns:xlink="http://www.w3.org/1999/xlink" xml:space="preserve" xmlns:serif="http://www.serif.com/" style="fill-rule:evenodd;clip-rule:evenodd;stroke-linejoin:round;stroke-miterlimit:2;">
    <g id="Artboard1" transform="matrix(14.5158,0,0,14.5158,47.6566,46.0545)">
        <rect x="-3.318" y="-3.207" width="55.954" height="55.902" style="fill:none;"/>
        <g transform="matrix(1.08158,0,0,1.08158,-1.19055,-0.935566)">
            <path d="M29.944,38.95L5.041,38.95C2.257,38.95 0,36.656 0,33.826L0,5.124C0,2.294 2.257,0 5.041,0L29.944,0C34.566,0 38.314,3.809 38.314,8.51L38.314,30.44C38.314,35.139 34.566,38.95 29.944,38.95Z" style="fill:rgb(56,187,161);fill-rule:nonzero;"/>
        </g>
        <g transform="matrix(1.08158,0,0,1.08158,-1.19055,-0.935566)">
            <path d="M34.155,3.805L9.252,3.805C6.468,3.805 4.211,6.099 4.211,8.929L4.211,37.631C4.211,40.461 6.468,42.755 9.252,42.755L34.155,42.755C38.777,42.755 42.526,38.945 42.526,34.245L42.526,12.315C42.526,7.614 38.777,3.805 34.155,3.805ZM34.29,31.131C34.29,33.281 32.575,35.024 30.461,35.024L13.716,35.024C12.851,35.024 12.15,34.311 12.15,33.431L12.15,28.83C12.15,27.95 12.851,27.237 13.716,27.237L30.46,27.237C32.575,27.239 34.29,28.982 34.29,31.131ZM34.29,15.593C34.29,17.743 32.575,19.486 30.461,19.486L13.716,19.486C12.851,19.486 12.15,18.773 12.15,17.893L12.15,13.292C12.15,12.412 12.851,11.699 13.716,11.699L30.46,11.699C32.575,11.701 34.29,13.444 34.29,15.593Z" style="fill:rgb(96,97,97);fill-rule:nonzero;"/>
        </g>
        <g transform="matrix(1.08158,0,0,1.08158,-1.19055,-0.935566)">
            <path d="M39.243,8.785L14.341,8.785C11.556,8.785 9.3,11.079 9.3,13.909L9.3,42.611C9.3,45.441 11.556,47.735 14.341,47.735L39.243,47.735C43.866,47.735 47.614,43.926 47.614,39.225L47.614,17.295C47.614,12.594 43.867,8.785 39.243,8.785ZM40.174,36.113C40.174,38.263 38.46,40.006 36.345,40.006L18.806,40.006C17.941,40.006 17.24,39.293 17.24,38.413L17.24,33.812C17.24,32.932 17.941,32.219 18.806,32.219L36.345,32.219C38.46,32.219 40.174,33.962 40.174,36.113ZM40.174,20.574C40.174,22.723 38.46,24.466 36.345,24.466L18.806,24.466C17.941,24.466 17.24,23.753 17.24,22.874L17.24,18.272C17.24,17.393 17.941,16.68 18.806,16.68L36.345,16.68C38.46,16.681 40.174,18.424 40.174,20.574Z" style="fill:rgb(189,227,239);fill-rule:nonzero;"/>
        </g>
    </g>
</svg>
