<?xml version="1.0" encoding="UTF-8" standalone="no"?><!DOCTYPE svg PUBLIC "-//W3C//DTD SVG 1.1//EN" "http://www.w3.org/Graphics/SVG/1.1/DTD/svg11.dtd"><svg width="100%" height="100%" viewBox="0 0 49 34" version="1.1" xmlns="http://www.w3.org/2000/svg" xmlns:xlink="http://www.w3.org/1999/xlink" xml:space="preserve" xmlns:serif="http://www.serif.com/" style="fill-rule:evenodd;clip-rule:evenodd;stroke-linejoin:round;stroke-miterlimit:2;"><path d="M45.089,15.977l-14.139,-14.139c-0.39,-0.391 -0.39,-1.024 0,-1.415c0.391,-0.39 1.024,-0.39 1.414,0l15.84,15.839c0.359,0.36 0.387,0.925 0.086,1.317c-0.036,0.052 -0.077,0.102 -0.123,0.149l-15.849,15.849c-0.39,0.39 -1.024,0.39 -1.414,-0c-0.391,-0.391 -0.391,-1.024 -0,-1.415l14.185,-14.185l-43.585,-0c-0.552,-0 -1,-0.448 -1,-1c-0,-0.552 0.448,-1 1,-1l43.585,-0Z"/></svg>