<svg width="40" height="24" viewBox="0 0 40 24" fill="none" xmlns="http://www.w3.org/2000/svg">
<g clip-path="url(#clip0)">
<path opacity="0.07" d="M36.8421 0H3.15789C2.32037 0 1.51715 0.31607 0.924926 0.87868C0.332706 1.44129 0 2.20435 0 3L0 21C0 21.7956 0.332706 22.5587 0.924926 23.1213C1.51715 23.6839 2.32037 24 3.15789 24H36.8421C37.6796 24 38.4829 23.6839 39.0751 23.1213C39.6673 22.5587 40 21.7956 40 21V3C40 2.20435 39.6673 1.44129 39.0751 0.87868C38.4829 0.31607 37.6796 0 36.8421 0V0Z" fill="#004D70"/>
<path d="M36.8422 1C37.4006 1 37.936 1.21071 38.3309 1.58579C38.7257 1.96086 38.9475 2.46957 38.9475 3V21C38.9475 21.5304 38.7257 22.0391 38.3309 22.4142C37.936 22.7893 37.4006 23 36.8422 23H3.158C2.59965 23 2.06417 22.7893 1.66935 22.4142C1.27454 22.0391 1.05273 21.5304 1.05273 21V3C1.05273 2.46957 1.27454 1.96086 1.66935 1.58579C2.06417 1.21071 2.59965 1 3.158 1H36.8422Z" fill="white"/>
<path d="M20.0002 20C24.651 20 28.4212 16.4183 28.4212 12C28.4212 7.58172 24.651 4 20.0002 4C15.3493 4 11.5791 7.58172 11.5791 12C11.5791 16.4183 15.3493 20 20.0002 20Z" fill="#8DC451"/>
<path d="M22.3368 11.43C22.519 11.0838 22.5781 10.6908 22.5053 10.31C22.4995 10.0467 22.4333 9.78776 22.3113 9.55127C22.1893 9.31478 22.0145 9.10642 21.799 8.94074C21.5835 8.77506 21.3326 8.65605 21.0636 8.59202C20.7947 8.52799 20.5144 8.52047 20.2421 8.57L20 7C19.9987 6.98684 19.9946 6.97407 19.9881 6.9624C19.9815 6.95074 19.9726 6.94043 19.9619 6.93206C19.9511 6.92369 19.9387 6.91743 19.9254 6.91365C19.912 6.90986 19.898 6.90862 19.8842 6.91L19.2737 7C19.2474 7.00703 19.2251 7.02348 19.2113 7.04586C19.1976 7.06825 19.1935 7.09483 19.2 7.12L19.4842 8.7L18.7263 8.83L18.4421 7.29C18.4408 7.27684 18.4367 7.26407 18.4302 7.2524C18.4236 7.24074 18.4147 7.23043 18.404 7.22206C18.3932 7.21369 18.3808 7.20743 18.3675 7.20365C18.3541 7.19986 18.3401 7.19862 18.3263 7.2L17.7579 7.3C17.7338 7.30693 17.7131 7.32184 17.6996 7.34202C17.6861 7.36221 17.6806 7.38632 17.6842 7.41L17.9789 9L16.3789 9.27C16.3527 9.27704 16.3303 9.29348 16.3166 9.31586C16.3028 9.33825 16.2988 9.36483 16.3053 9.39L16.4105 10C16.4118 10.0132 16.4159 10.0259 16.4224 10.0376C16.429 10.0493 16.4379 10.0596 16.4487 10.0679C16.4594 10.0763 16.4718 10.0826 16.4852 10.0864C16.4985 10.0901 16.5125 10.0914 16.5263 10.09H16.621C16.729 10.0789 16.8381 10.0883 16.9422 10.1176C17.0463 10.1469 17.1432 10.1955 17.2274 10.2606C17.3116 10.3257 17.3814 10.406 17.4327 10.4968C17.484 10.5877 17.5158 10.6874 17.5263 10.79L18.1368 14C18.1823 14.1906 18.1529 14.3903 18.054 14.5617C17.9551 14.733 17.7936 14.864 17.6 14.93C17.5795 14.9361 17.5615 14.948 17.5483 14.964C17.5352 14.9801 17.5275 14.9997 17.5263 15.02V15.66C17.514 15.6889 17.514 15.7211 17.5263 15.75C17.5394 15.7562 17.5538 15.7594 17.5684 15.7594C17.583 15.7594 17.5974 15.7562 17.6105 15.75L19.1895 15.49L19.4737 17.03C19.4788 17.0548 19.4936 17.0767 19.5151 17.0916C19.5365 17.1064 19.5631 17.113 19.5895 17.11L20.1579 17.01C20.1841 17.003 20.2065 16.9865 20.2202 16.9641C20.234 16.9418 20.2381 16.9152 20.2316 16.89L20 15.39L20.7474 15.26L21.0316 16.8C21.0367 16.8248 21.0515 16.8467 21.0729 16.8616C21.0944 16.8764 21.121 16.883 21.1474 16.88L21.7158 16.79C21.742 16.783 21.7644 16.7665 21.7781 16.7441C21.7919 16.7218 21.7959 16.6952 21.7895 16.67L21.5053 15.13L21.8842 15.07C22.1591 15.0303 22.4215 14.9336 22.6527 14.7868C22.8839 14.6399 23.0782 14.4465 23.2219 14.2203C23.3655 13.9941 23.455 13.7407 23.484 13.4779C23.513 13.2152 23.4807 12.9496 23.3895 12.7C23.3404 12.4201 23.2183 12.1564 23.0345 11.9328C22.8506 11.7093 22.6108 11.533 22.3368 11.42V11.43ZM18.9474 10.06L20.0737 9.87C20.2879 9.86119 20.4981 9.92661 20.6653 10.0541C20.8325 10.1815 20.9453 10.3624 20.9826 10.5629C21.02 10.7635 20.9793 10.9701 20.8683 11.1443C20.7572 11.3185 20.5833 11.4485 20.3789 11.51L19.2526 11.7L18.9474 10.06ZM21.221 13.91L19.7158 14.16L19.4105 12.52L20.9158 12.27C21.13 12.2612 21.3402 12.3266 21.5074 12.4541C21.6747 12.5815 21.7874 12.7624 21.8247 12.9629C21.8621 13.1635 21.8214 13.3701 21.7104 13.5443C21.5993 13.7185 21.4254 13.8485 21.221 13.91Z" fill="white"/>
</g>
<defs>
<clipPath id="clip0">
<rect width="40" height="24" fill="white"/>
</clipPath>
</defs>
</svg>
