<svg width="40" height="24" viewBox="0 0 40 24" fill="none" xmlns="http://www.w3.org/2000/svg">
<path opacity="0.07" d="M36.8421 0H3.15789C1.36842 0 0 1.3 0 3V21C0 22.7 1.47368 24 3.15789 24H36.8421C38.6316 24 40 22.7 40 21V3C40 1.3 38.5263 0 36.8421 0Z" fill="#004D70"/>
<path d="M36.8422 1C38.0001 1 38.9475 1.9 38.9475 3V21C38.9475 22.1 38.0001 23 36.8422 23H3.158C2.0001 23 1.05273 22.1 1.05273 21V3C1.05273 1.9 2.0001 1 3.158 1H36.8422Z" fill="white"/>
<path d="M22.7371 4.4C18.316 3 13.5792 5.2 12.0002 9.4C10.4213 13.6 12.8423 18.1 17.2634 19.6C21.6844 21.1 26.4213 18.8 28.0002 14.6C29.4739 10.4 27.1581 5.9 22.7371 4.4Z" fill="#EDA024"/>
<path d="M16.9474 8.29999L17.2632 7.29999C17.8948 7.49999 18.6316 7.69999 19.2632 7.99999C19.4737 7.49999 19.6843 6.99999 19.7895 6.39999L20.7369 6.69999L20.2106 8.19999L21.0527 8.49999L21.579 6.99999L22.5264 7.29999C22.3158 7.79999 22.1053 8.29999 22.0001 8.89999L22.4211 9.09999C22.7369 9.29999 23.0527 9.49999 23.3685 9.79999C23.6843 10.1 23.7895 10.4 23.8948 10.8C23.8948 11.1 23.8948 11.4 23.6843 11.7C23.4737 12.2 23.1579 12.5 22.5264 12.6H22.3158C22.5264 12.7 22.6316 12.8 22.7369 13C23.1579 13.4 23.2632 13.8 23.1579 14.4C23.1579 14.5 23.1579 14.6 23.0527 14.7C23.0527 14.8 23.0527 14.8 22.9474 14.9C22.8422 15.1 22.7369 15.2 22.7369 15.4C22.4211 15.9 21.8948 16.3 21.1579 16.3C20.6316 16.3 20.1053 16.3 19.6843 16.2L19.2632 16.1C19.0527 16.6 18.8422 17.1 18.7369 17.7L17.7895 17.4C18.0001 16.9 18.2106 16.4 18.3158 15.9L17.4737 15.6C17.2632 16.1 17.0527 16.6 16.9474 17.1L16.0001 16.8C16.2106 16.3 16.4211 15.8 16.5264 15.2L14.5264 14.6L15.1579 13.5C15.3685 13.6 15.6843 13.7 15.8948 13.7C16.1053 13.8 16.3158 13.7 16.4211 13.5L17.8948 9.29999V9.19999C17.8948 8.89999 17.7895 8.69999 17.4737 8.69999C17.4737 8.49999 17.2632 8.39999 16.9474 8.29999ZM18.2106 14.3C18.7369 14.5 19.1579 14.6 19.579 14.7C19.8948 14.8 20.1053 14.8 20.4211 14.8C20.6316 14.8 20.7369 14.8 20.9474 14.7C21.4737 14.4 21.579 13.7 21.1579 13.3L20.5264 12.8C20.2106 12.6 19.7895 12.5 19.3685 12.4C19.2632 12.4 19.0527 12.3 18.9474 12.2L18.2106 14.3ZM19.2632 11.2C19.579 11.3 19.7895 11.4 20.0001 11.4C20.3158 11.5 20.6316 11.6 20.9474 11.5C21.3685 11.5 21.6843 11.4 21.7895 11C21.8948 10.7 21.8948 10.4 21.7895 10.2C21.6843 9.99999 21.4737 9.89999 21.2632 9.79999C20.9474 9.59999 20.6316 9.49999 20.2106 9.39999L19.8948 9.29999C19.7895 9.99999 19.4737 10.6 19.2632 11.2Z" fill="white"/>
</svg>
