<svg width="40" height="24" viewBox="0 0 40 24" fill="none" xmlns="http://www.w3.org/2000/svg">
<path opacity="0.07" d="M36.8421 0H3.15789C1.36842 0 0 1.3 0 3V21C0 22.7 1.47368 24 3.15789 24H36.8421C38.6316 24 40 22.7 40 21V3C40 1.3 38.5263 0 36.8421 0Z" fill="#004D70"/>
<path d="M36.8422 1C38.0001 1 38.9475 1.9 38.9475 3V21C38.9475 22.1 38.0001 23 36.8422 23H3.158C2.0001 23 1.05273 22.1 1.05273 21V3C1.05273 1.9 2.0001 1 3.158 1H36.8422Z" fill="white"/>
<path d="M29.7895 10.1H29.4737C29.0527 11.1 28.7369 11.6 28.4211 13.1H30.4211C30.1053 11.6 30.1053 10.9 29.7895 10.1ZM32.8421 16H31.0527C30.9474 16 30.9474 16 30.8421 15.9L30.6316 15L30.5263 14.8H28C27.8948 14.8 27.7895 14.8 27.7895 15L27.4737 15.9C27.4737 16 27.3684 16 27.3684 16H25.1579L25.3684 15.5L28.4211 8.7C28.4211 8.2 28.7369 8 29.2632 8H30.8421C30.9474 8 31.0527 8 31.0527 8.2L32.5263 14.7C32.6316 15.1 32.7369 15.4 32.7369 15.8C32.8421 15.9 32.8421 15.9 32.8421 16ZM18.7369 15.7L19.1579 13.9C19.2632 13.9 19.3684 14 19.3684 14C20.1053 14.3 20.8421 14.5 21.579 14.4C21.7895 14.4 22.1053 14.3 22.3158 14.2C22.8421 14 22.8421 13.5 22.4211 13.1C22.2106 12.9 21.8948 12.8 21.579 12.6C21.1579 12.4 20.7369 12.2 20.4211 11.9C19.1579 10.9 19.579 9.5 20.3158 8.8C20.9474 8.4 21.2632 8 22.1053 8C23.3684 8 24.7369 8 25.3684 8.2H25.4737C25.3684 8.8 25.2632 9.3 25.0527 9.9C24.5263 9.7 24 9.5 23.4737 9.5C23.1579 9.5 22.8421 9.5 22.5263 9.6C22.3158 9.6 22.2106 9.7 22.1053 9.8C21.8948 10 21.8948 10.3 22.1053 10.5L22.6316 10.9C23.0527 11.1 23.4737 11.3 23.7895 11.5C24.3158 11.8 24.8421 12.3 24.9474 12.9C25.1579 13.8 24.8421 14.6 24 15.2C23.4737 15.6 23.2632 15.8 22.5263 15.8C21.0527 15.8 19.8948 15.9 18.9474 15.6C18.8421 15.8 18.8421 15.8 18.7369 15.7ZM15.0527 16C15.1579 15.3 15.1579 15.3 15.2632 15C15.7895 12.8 16.3158 10.5 16.7369 8.3C16.8421 8.1 16.8421 8 17.0527 8H18.9474C18.7369 9.2 18.5263 10.1 18.2106 11.2C17.8948 12.7 17.579 14.2 17.1579 15.7C17.1579 15.9 17.0527 15.9 16.8421 15.9L15.0527 16ZM5.26318 8.2C5.26318 8.1 5.47371 8 5.57897 8H9.15792C9.68424 8 10.1053 8.3 10.2106 8.8L11.1579 13.2C11.1579 13.3 11.1579 13.3 11.2632 13.4C11.2632 13.3 11.3684 13.3 11.3684 13.3L13.579 8.2C13.4737 8.1 13.579 8 13.6842 8H15.8948C15.8948 8.1 15.8948 8.1 15.7895 8.2L12.5263 15.5C12.4211 15.7 12.4211 15.8 12.3158 15.9C12.2106 16 12 15.9 11.7895 15.9H10.2106C10.1053 15.9 10 15.9 10 15.7L8.31582 9.5C8.10529 9.3 7.7895 9 7.36845 8.9C6.73687 8.6 5.57897 8.4 5.36845 8.4L5.26318 8.2Z" fill="#142688"/>
</svg>
