<svg width="40" height="24" viewBox="0 0 40 24" fill="none" xmlns="http://www.w3.org/2000/svg">
<path d="M37.4737 24H2.52632C1.1579 24 0 22.9 0 21.6V2.4C0 1.1 1.1579 0 2.52632 0H37.4737C38.8421 0 40 1.1 40 2.4V21.6C40 22.9 38.8421 24 37.4737 24Z" fill="white"/>
<path opacity="0.25" d="M37.4737 24H2.52632C1.1579 24 0 22.9 0 21.6V2.4C0 1.1 1.1579 0 2.52632 0H37.3684C38.8421 0 40 1.1 40 2.4V21.6C40 22.9 38.8421 24 37.4737 24ZM2.52632 1C1.68421 1 1.05263 1.6 1.05263 2.4V21.6C1.05263 22.4 1.68421 23 2.52632 23H37.3684C38.2105 23 38.9474 22.4 38.9474 21.6V2.4C38.9474 1.6 38.3158 1 37.4737 1H2.52632Z" fill="#A8AAAD"/>
<path d="M20.0002 20.2C24.7673 20.2 28.6318 16.5287 28.6318 12C28.6318 7.47127 24.7673 3.8 20.0002 3.8C15.2331 3.8 11.3687 7.47127 11.3687 12C11.3687 16.5287 15.2331 20.2 20.0002 20.2Z" fill="#58595B"/>
<path d="M19.1579 7.5L17.8948 12L16.8422 12.4L16.5264 13.5L17.579 13.1L16.8422 15.8H24.1053L24.5264 14.2H20.0001L20.6316 12L21.8948 11.6L22.2106 10.5L20.9474 11L21.8948 7.5H19.1579Z" fill="white"/>
</svg>
