<svg width="40" height="24" viewBox="0 0 40 24" fill="none" xmlns="http://www.w3.org/2000/svg">
<path opacity="0.07" d="M36.8421 0H3.15789C1.36842 0 0 1.3 0 3V21C0 22.7 1.47368 24 3.15789 24H36.8421C38.6316 24 40 22.7 40 21V3C40 1.3 38.5263 0 36.8421 0Z" fill="#004D70"/>
<path d="M36.8422 1C38.0001 1 38.9475 1.9 38.9475 3V21C38.9475 22.1 38.0001 23 36.8422 23H3.158C2.0001 23 1.05273 22.1 1.05273 21V3C1.05273 1.9 2.0001 1 3.158 1H36.8422Z" fill="white"/>
<path fill-rule="evenodd" clip-rule="evenodd" d="M12.1052 5H15.7894V16.5C15.7894 17.163 15.5122 17.7989 15.0187 18.2678C14.5251 18.7366 13.8558 19 13.1578 19H9.47363V7.5C9.47363 6.83696 9.75089 6.20107 10.2444 5.73223C10.7379 5.26339 11.4073 5 12.1052 5Z" fill="#006EBC"/>
<path fill-rule="evenodd" clip-rule="evenodd" d="M19.4739 5H23.1581V16.5C23.1581 17.163 22.8808 17.7989 22.3873 18.2678C21.8938 18.7366 21.2244 19 20.5265 19H16.8423V7.5C16.8423 6.83696 17.1195 6.20107 17.6131 5.73223C18.1066 5.26339 18.7759 5 19.4739 5Z" fill="#F00036"/>
<path fill-rule="evenodd" clip-rule="evenodd" d="M26.842 5H30.5262V16.5C30.5262 17.163 30.249 17.7989 29.7555 18.2678C29.2619 18.7366 28.5926 19 27.8947 19H24.2104V7.5C24.2104 6.83696 24.4877 6.20107 24.9812 5.73223C25.4747 5.26339 26.1441 5 26.842 5Z" fill="#2AB419"/>
<path d="M11.3212 14.5C10.2054 14.5 9.0875 14.196 8.52539 13.513L9.34644 12.837C9.41802 13.97 13.078 14.077 13.078 12.647V9.5H14.9749V12.647C14.9749 13.375 14.3707 13.969 13.3191 14.279C12.8285 14.423 11.8822 14.5 11.3212 14.5ZM19.8643 14.5C19.1549 14.5 18.4033 14.393 17.7959 14.134C16.798 13.709 16.4149 12.928 16.4275 11.935C16.4401 10.921 16.8864 10.153 17.9728 9.77C19.3612 9.28 21.4917 9.509 22.1054 10.04V11.012C21.5033 10.491 20.0443 10.114 19.0328 10.552C18.5128 10.778 18.257 11.469 18.2496 12C18.2433 12.56 18.5075 13.252 19.0328 13.497C20.0359 13.964 21.5486 13.537 22.1054 13.056V14.066C21.7286 14.321 20.7864 14.5 19.8643 14.5ZM29.0001 11.913C29.3896 11.678 29.6128 11.346 29.6128 10.908C29.6128 10.47 29.4907 10.221 29.2464 9.969C29.0296 9.762 28.6359 9.5 27.9433 9.5H24.2107V14.5H27.9433C28.6759 14.5 29.098 14.27 29.3275 14.085C29.6254 13.835 29.7759 13.555 29.7759 13.125C29.7759 12.694 29.6128 12.217 29.0001 11.913ZM26.9938 11.632H25.4907V10.188H27.0643C28.0707 10.188 28.058 11.632 26.9938 11.632ZM27.297 13.789H25.4907V12.276H27.297C28.3349 12.276 28.437 13.789 27.297 13.789Z" fill="white"/>
</svg>
