<svg width="40" height="24" viewBox="0 0 40 24" fill="none" xmlns="http://www.w3.org/2000/svg">
<path opacity="0.07" d="M36.8421 0H3.15789C1.36842 0 0 1.3 0 3V21C0 22.7 1.47368 24 3.15789 24H36.8421C38.6316 24 40 22.7 40 21V3C40 1.3 38.5263 0 36.8421 0Z" fill="#004D70"/>
<path d="M36.8422 1C38.0001 1 38.9475 1.9 38.9475 3V21C38.9475 22.1 38.0001 23 36.8422 23H3.158C2.0001 23 1.05273 22.1 1.05273 21V3C1.05273 1.9 2.0001 1 3.158 1H36.8422Z" fill="white"/>
<path d="M15.7893 19C19.8588 19 23.1577 15.866 23.1577 12C23.1577 8.13401 19.8588 5 15.7893 5C11.7199 5 8.4209 8.13401 8.4209 12C8.4209 15.866 11.7199 19 15.7893 19Z" fill="#EB001B"/>
<path d="M24.2107 19C28.2802 19 31.5791 15.866 31.5791 12C31.5791 8.13401 28.2802 5 24.2107 5C20.1412 5 16.8423 8.13401 16.8423 12C16.8423 15.866 20.1412 19 24.2107 19Z" fill="#F79E1B"/>
<path d="M23.1581 12C23.1581 9.6 21.8949 7.5 20.0002 6.3C18.1054 7.6 16.8423 9.7 16.8423 12C16.8423 14.3 18.1054 16.5 20.0002 17.7C21.8949 16.5 23.1581 14.4 23.1581 12Z" fill="#FF5F00"/>
</svg>
