<svg width="40" height="24" viewBox="0 0 40 24" fill="none" xmlns="http://www.w3.org/2000/svg">
<path opacity="0.07" d="M36.8421 0H3.15789C1.36842 0 0 1.3 0 3V21C0 22.7 1.47368 24 3.15789 24H36.8421C38.6316 24 40 22.7 40 21V3C40 1.3 38.5263 0 36.8421 0Z" fill="#004D70"/>
<path d="M36.8422 1C38.0001 1 38.9475 1.9 38.9475 3V21C38.9475 22.1 38.0001 23 36.8422 23H3.158C2.0001 23 1.05273 22.1 1.05273 21V3C1.05273 1.9 2.0001 1 3.158 1H36.8422Z" fill="white"/>
<path d="M14 15.5C13.3684 16.1 12.5263 16.4 11.5789 16.4C10.9474 16.4 10.3158 16.2 9.89474 15.9L8.63158 17.8C9.47368 18.4 10.5263 18.7 11.5789 18.7C13.1579 18.7 14.6316 18.1 15.6842 17.1L14 15.5ZM11.7895 7.8C8.63158 7.8 6 10.2 6 13.2C6 14.3 6.31579 15.4 6.94737 16.3L17.2632 12.1C16.6316 9.6 14.4211 7.8 11.7895 7.8ZM8.31579 13.6V13.2C8.31579 11.4 9.89474 10 11.6842 10C12.7368 10 13.5789 10.5 14.2105 11.1L8.31579 13.6ZM20.5263 5.3V15.8L22.4211 16.6L21.4737 18.7L19.5789 17.9C19.1579 17.7 18.8421 17.5 18.6316 17.2C18.4211 16.9 18.3158 16.5 18.3158 15.9V5.3H20.5263ZM27.3684 10.2C27.6842 10.1 28.1053 10 28.4211 10C30 10 31.3684 11.1 31.6842 12.6L34 12.2C33.4737 9.7 31.1579 7.8 28.4211 7.8C27.7895 7.8 27.1579 7.9 26.6316 8.1L27.3684 10.2ZM24.6316 17.3L26.2105 15.6C25.4737 15 25.0526 14.2 25.0526 13.2C25.0526 12.2 25.4737 11.4 26.2105 10.8L24.6316 9.1C23.4737 10.1 22.7368 11.6 22.7368 13.2C22.7368 14.9 23.4737 16.3 24.6316 17.3ZM31.6842 13.9C31.3684 15.4 30 16.5 28.4211 16.5C28 16.5 27.6842 16.4 27.3684 16.3L26.6316 18.4C27.1579 18.6 27.7895 18.7 28.4211 18.7C31.1579 18.7 33.4737 16.8 34 14.3L31.6842 13.9Z" fill="#004D70"/>
</svg>
