<svg width="40" height="24" viewBox="0 0 40 24" fill="none" xmlns="http://www.w3.org/2000/svg">
<path opacity="0.07" d="M36.8421 0H3.15789C1.36842 0 0 1.3 0 3V21C0 22.7 1.47368 24 3.15789 24H36.8421C38.6316 24 40 22.7 40 21V3C40 1.3 38.5263 0 36.8421 0Z" fill="#004D70"/>
<path d="M36.8422 1C38.0001 1 38.9475 1.9 38.9475 3V21C38.9475 22.1 38.0001 23 36.8422 23H3.158C2.0001 23 1.05273 22.1 1.05273 21V3C1.05273 1.9 2.0001 1 3.158 1H36.8422Z" fill="white"/>
<path d="M20.0002 20.2C24.7673 20.2 28.6318 16.5287 28.6318 12C28.6318 7.47127 24.7673 3.8 20.0002 3.8C15.2331 3.8 11.3687 7.47127 11.3687 12C11.3687 16.5287 15.2331 20.2 20.0002 20.2Z" fill="#F5AC37"/>
<path d="M15.7913 16.462V16.432V15.262V13.685C15.7913 13.619 15.7913 13.609 15.7071 13.609H14.5598C14.4966 13.609 14.4692 13.609 14.4692 13.529V12.575H15.6956C15.765 12.575 15.7903 12.575 15.7903 12.489V11.545C15.7903 11.485 15.7903 11.47 15.7061 11.47H14.5587C14.4956 11.47 14.4692 11.47 14.4692 11.39V10.505C14.4692 10.45 14.4692 10.435 14.5534 10.435H15.6903C15.7703 10.435 15.7913 10.435 15.7913 10.34V7.632C15.7913 7.552 15.7913 7.532 15.8966 7.532H19.8619C20.1494 7.54209 20.4358 7.57217 20.7187 7.622C21.3014 7.72481 21.8611 7.92201 22.3734 8.205C22.7125 8.3948 23.0251 8.62426 23.304 8.888C23.5126 9.09452 23.7018 9.31805 23.8692 9.556C24.0359 9.79725 24.1743 10.0551 24.2819 10.325C24.2883 10.3587 24.3085 10.3887 24.3381 10.4084C24.3676 10.4281 24.4042 10.4358 24.4398 10.43H25.3871C25.5082 10.43 25.5082 10.43 25.5135 10.54V11.364C25.5135 11.444 25.4819 11.464 25.3977 11.464H24.6682C24.5945 11.464 24.5735 11.464 24.5777 11.555C24.6068 11.861 24.6068 12.169 24.5777 12.475C24.5777 12.56 24.5777 12.57 24.6787 12.57H25.5135C25.5503 12.615 25.5135 12.66 25.5135 12.705C25.5189 12.7636 25.5189 12.8224 25.5135 12.881V13.489C25.5135 13.574 25.4871 13.599 25.4082 13.599H24.4082C24.3746 13.5933 24.3401 13.6001 24.3116 13.618C24.2832 13.6358 24.2631 13.6634 24.2556 13.695C24.0173 14.283 23.6369 14.8095 23.145 15.232C22.9653 15.3859 22.7766 15.5302 22.5798 15.664C22.3682 15.779 22.1619 15.9 21.945 15.995C21.5458 16.1656 21.1273 16.2921 20.6977 16.372C20.2892 16.4413 19.8746 16.4731 19.4598 16.467H15.7913V16.462ZM23.0924 13.619C23.0029 13.609 22.9124 13.609 22.8229 13.619H16.9598C16.8798 13.619 16.8545 13.619 16.8545 13.719V15.463C16.8545 15.543 16.8545 15.563 16.9598 15.563H19.6661C19.7954 15.5722 19.9255 15.5638 20.0524 15.538C20.4451 15.511 20.8317 15.4298 21.1998 15.297C21.3342 15.2528 21.4637 15.1959 21.5861 15.127H21.6229C22.2571 14.8135 22.7726 14.3199 23.0977 13.715C23.0977 13.715 23.1345 13.635 23.0924 13.615V13.619ZM23.0924 10.425C23.1018 10.4025 23.1018 10.3775 23.0924 10.355C23.0396 10.244 22.9762 10.1379 22.9029 10.038C22.7916 9.86839 22.6598 9.71167 22.5103 9.571C22.4404 9.4859 22.359 9.40991 22.2682 9.345C21.8105 8.97494 21.2668 8.71343 20.6819 8.582C20.3871 8.51731 20.0855 8.4851 19.7829 8.486H16.944C16.864 8.486 16.8534 8.516 16.8534 8.582V10.365C16.8534 10.44 16.8534 10.46 16.9545 10.46H23.0556C23.0556 10.46 23.1082 10.45 23.1187 10.42L23.0924 10.425ZM20.1313 12.575H23.3461C23.4145 12.575 23.4461 12.575 23.4513 12.489C23.4778 12.1782 23.4778 11.8658 23.4513 11.555C23.4513 11.495 23.4198 11.47 23.3513 11.47H16.9545C16.8745 11.47 16.8534 11.495 16.8534 11.565V12.455C16.8534 12.57 16.8534 12.57 16.9798 12.57L20.1313 12.575Z" fill="white"/>
</svg>
