<svg width="40" height="24" viewBox="0 0 40 24" fill="none" xmlns="http://www.w3.org/2000/svg">
<path opacity="0.07" d="M36.8421 0H3.15789C1.36842 0 0 1.3 0 3V21C0 22.7 1.47368 24 3.15789 24H36.8421C38.6316 24 40 22.7 40 21V3C40 1.3 38.5263 0 36.8421 0Z" fill="#004D70"/>
<path d="M36.8422 1C38.0001 1 38.9475 1.9 38.9475 3V21C38.9475 22.1 38.0001 23 36.8422 23H3.158C2.0001 23 1.05273 22.1 1.05273 21V3C1.05273 1.9 2.0001 1 3.158 1H36.8422Z" fill="white"/>
<path d="M25.1579 8.3C25.3684 7.3 25.1579 6.6 24.5263 6C23.8947 5.3 22.7368 5 21.2631 5H16.9473C16.6316 5 16.421 5.2 16.3158 5.5L14.7368 15.6C14.7368 15.8 14.8421 16 15.0526 16H17.8947L18.3158 12.6L20.2105 10.4L25.1579 8.3Z" fill="#003087"/>
<path d="M25.1578 8.3L24.9473 8.5C24.421 11.3 22.6315 12.3 20.1052 12.3H18.9473C18.6315 12.3 18.421 12.5 18.3157 12.8L17.6842 16.7L17.4736 17.7C17.4736 17.9 17.5789 18.1 17.7894 18.1H19.9999C20.3157 18.1 20.5263 17.9 20.5263 17.7V17.6L20.9473 15.2V15.1C20.9473 14.9 21.2631 14.7 21.4736 14.7H21.7894C23.9999 14.7 25.6842 13.9 26.1052 11.5C26.3157 10.5 26.2105 9.7 25.6842 9.1C25.5789 8.6 25.3684 8.4 25.1578 8.3Z" fill="#3086C8"/>
<path d="M24.5264 8.1C24.4212 8 24.3159 8 24.2107 8C24.1054 8 24.0001 8 23.8949 7.9C23.5791 7.8 23.158 7.8 22.737 7.8H19.5791C19.4738 7.8 19.3685 7.8 19.3685 7.9C19.158 8 19.0528 8.1 19.0528 8.3L18.3159 12.7V12.8C18.3159 12.5 18.6317 12.3 18.9475 12.3H20.3159C22.9475 12.3 24.6317 11.3 25.158 8.5V8.3C25.0528 8.2 24.8422 8.1 24.6317 8.1H24.5264Z" fill="#012169"/>
</svg>
