<svg width="40" height="24" viewBox="0 0 40 24" fill="none" xmlns="http://www.w3.org/2000/svg">
<path opacity="0.07" d="M36.8421 0H3.15789C1.36842 0 0 1.3 0 3V21C0 22.7 1.47368 24 3.15789 24H36.8421C38.6316 24 40 22.7 40 21V3C40 1.3 38.5263 0 36.8421 0Z" fill="#004D70"/>
<path d="M36.8422 1C38.0001 1 38.9475 1.9 38.9475 3V21C38.9475 22.1 38.0001 23 36.8422 23H3.158C2.0001 23 1.05273 22.1 1.05273 21V3C1.05273 1.9 2.0001 1 3.158 1H36.8422Z" fill="white"/>
<path d="M19.0452 11.976V15.176H17.9736V7.276H20.8063C21.1457 7.27054 21.4829 7.32887 21.7984 7.44763C22.114 7.56638 22.4018 7.74323 22.6452 7.968C22.8758 8.17239 23.0617 8.41795 23.1923 8.69064C23.3229 8.96332 23.3957 9.25779 23.4064 9.5572C23.4172 9.85662 23.3657 10.1551 23.255 10.4356C23.1442 10.7161 22.9764 10.9732 22.761 11.192L22.6452 11.308C22.1505 11.755 21.4894 11.998 20.8063 11.982L19.0452 11.976ZM19.0452 8.244V11.032H20.8326C21.2294 11.044 21.6126 10.897 21.8905 10.628C22.0893 10.4312 22.2227 10.1832 22.2743 9.91483C22.3259 9.6465 22.2933 9.36969 22.1805 9.11883C22.0678 8.86797 21.8799 8.65413 21.6402 8.50392C21.4006 8.35371 21.1197 8.27376 20.8326 8.274L19.0452 8.244ZM25.8705 9.592C26.5547 9.562 27.2242 9.78 27.7421 10.205C28.2105 10.635 28.4599 11.235 28.4263 11.854V15.188H27.4063V14.422H27.3547C27.1718 14.7093 26.9131 14.9463 26.6042 15.1096C26.2954 15.2729 25.9471 15.3568 25.5936 15.353C25.0167 15.3707 24.4541 15.1803 24.0189 14.82C23.8127 14.6602 23.6475 14.458 23.5357 14.2286C23.4239 13.9992 23.3685 13.7487 23.3736 13.496C23.3615 13.2406 23.4137 12.9861 23.5259 12.7538C23.6382 12.5214 23.8072 12.3178 24.0189 12.16C24.5383 11.8052 25.1669 11.624 25.8063 11.645C26.3505 11.625 26.8905 11.738 27.3747 11.976V11.768C27.3782 11.596 27.3406 11.4255 27.2645 11.2694C27.1885 11.1133 27.076 10.9757 26.9357 10.867C26.654 10.6237 26.2849 10.492 25.9042 10.499C25.6277 10.4965 25.3551 10.5611 25.1121 10.6865C24.8692 10.812 24.6639 10.9942 24.5157 11.216L23.5736 10.652C23.8294 10.3038 24.1748 10.0236 24.5769 9.83805C24.9789 9.65251 25.4242 9.5678 25.8705 9.592ZM24.5157 13.52C24.5132 13.6495 24.5442 13.7776 24.6061 13.8931C24.668 14.0085 24.7587 14.1077 24.8705 14.182C25.1052 14.358 25.3968 14.451 25.6968 14.445C26.1484 14.444 26.581 14.275 26.9031 13.973C27.2242 13.687 27.4063 13.288 27.4063 12.87C27.001 12.5963 26.5086 12.4642 26.0126 12.496C25.6274 12.4816 25.2475 12.5846 24.9284 12.79C24.802 12.8703 24.6983 12.9789 24.6263 13.1062C24.5544 13.2334 24.5164 13.3755 24.5157 13.52ZM34.2905 9.77L30.7221 17.56H29.6189L30.9673 14.832L28.6263 9.77H29.7873L31.4842 13.655L33.1357 9.77H34.2905Z" fill="#5F6368"/>
<path d="M14.722 11.284C14.722 10.976 14.6968 10.668 14.6452 10.364H10.1294V12.111H12.7094C12.6569 12.3886 12.5459 12.6534 12.3831 12.8893C12.2203 13.1252 12.0091 13.3275 11.762 13.484V14.618H13.3031C13.7716 14.1873 14.14 13.6681 14.3844 13.0938C14.6288 12.5196 14.7438 11.9031 14.722 11.284Z" fill="#4285F4"/>
<path d="M10.1359 15.721C11.3004 15.7514 12.4334 15.3591 13.3043 14.624L11.7611 13.484C11.3903 13.7099 10.9702 13.8524 10.5327 13.9008C10.0952 13.9492 9.65188 13.9022 9.23638 13.7634C8.82087 13.6245 8.44417 13.3975 8.13491 13.0996C7.82565 12.8017 7.59197 12.4406 7.45166 12.044H5.87061V13.214C6.26624 13.967 6.87487 14.6005 7.62824 15.0433C8.38162 15.4861 9.24995 15.7208 10.1359 15.721Z" fill="#34A853"/>
<path d="M7.45169 12.05C7.25147 11.4873 7.25147 10.8777 7.45169 10.315V9.145H5.87063C5.53357 9.77646 5.35791 10.4745 5.35791 11.1825C5.35791 11.8905 5.53357 12.5885 5.87063 13.22L7.45169 12.05Z" fill="#FBBC04"/>
<path d="M10.1359 8.44C10.8169 8.42819 11.4753 8.67261 11.9674 9.12L13.3359 7.82701C12.4633 7.04902 11.306 6.62466 10.1096 6.644C9.22889 6.6482 8.36665 6.88401 7.61843 7.32528C6.87021 7.76656 6.26525 8.39606 5.87061 9.144L7.45166 10.315C7.63652 9.77509 7.99491 9.30381 8.4764 8.96748C8.9579 8.63114 9.53826 8.44666 10.1359 8.44Z" fill="#EA4335"/>
</svg>
