<svg width="40" height="24" viewBox="0 0 40 24" fill="none" xmlns="http://www.w3.org/2000/svg">
<path opacity="0.07" d="M36.8421 0H3.15789C1.36842 0 0 1.3 0 3V21C0 22.7 1.47368 24 3.15789 24H36.8421C38.6316 24 40 22.7 40 21V3C40 1.3 38.5263 0 36.8421 0Z" fill="#004D70"/>
<path d="M36.8422 1C38.0001 1 38.9475 1.9 38.9475 3V21C38.9475 22.1 38.0001 23 36.8422 23H3.158C2.0001 23 1.05273 22.1 1.05273 21V3C1.05273 1.9 2.0001 1 3.158 1H36.8422Z" fill="white"/>
<path d="M20.0002 20.2C24.7673 20.2 28.6318 16.5287 28.6318 12C28.6318 7.47127 24.7673 3.8 20.0002 3.8C15.2331 3.8 11.3687 7.47127 11.3687 12C11.3687 16.5287 15.2331 20.2 20.0002 20.2Z" fill="#1652F0"/>
<path d="M22.0843 13.054C22.0843 12.019 21.4222 11.67 20.1401 11.502C19.1928 11.372 19.0085 11.162 19.0085 10.742C19.0085 10.322 19.3296 10.06 19.9433 10.06C20.5012 10.06 20.8243 10.244 20.957 10.672C20.971 10.7187 21.0005 10.7599 21.041 10.7894C21.0816 10.8189 21.1311 10.8353 21.1822 10.836H21.6728C21.7048 10.8364 21.7365 10.8301 21.7657 10.8176C21.7949 10.8051 21.8209 10.7867 21.8417 10.7636C21.8626 10.7405 21.8779 10.7134 21.8866 10.6841C21.8952 10.6548 21.8969 10.624 21.8917 10.594C21.7359 9.919 21.257 9.512 20.5054 9.385V8.673C20.5054 8.6143 20.4809 8.55798 20.4373 8.51638C20.3937 8.47477 20.3345 8.45127 20.2728 8.451H19.8043C19.7424 8.451 19.6829 8.47439 19.6391 8.51603C19.5953 8.55766 19.5706 8.61413 19.5706 8.673V9.36C18.638 9.485 18.0475 10.07 18.0475 10.822C18.0475 11.792 18.6706 12.17 19.9717 12.337C20.8559 12.475 21.1085 12.657 21.1085 13.134C21.1085 13.612 20.6812 13.932 20.077 13.932C19.2633 13.932 18.9875 13.594 18.8959 13.155C18.8853 13.1045 18.8566 13.0591 18.8148 13.0263C18.773 12.9935 18.7206 12.9754 18.6664 12.975H18.1349C18.1031 12.9746 18.0716 12.9808 18.0427 12.9932C18.0137 13.0056 17.988 13.0239 17.9673 13.0468C17.9467 13.0697 17.9315 13.0966 17.923 13.1257C17.9145 13.1548 17.9128 13.1852 17.918 13.215C18.0549 13.955 18.5538 14.495 19.5706 14.625V15.327C19.5706 15.3859 19.5953 15.4423 19.6391 15.484C19.6829 15.5256 19.7424 15.549 19.8043 15.549H20.2728C20.3345 15.5487 20.3937 15.5252 20.4373 15.4836C20.4809 15.442 20.5054 15.3857 20.5054 15.327V14.627C21.4706 14.481 22.0843 13.848 22.0843 13.054Z" fill="white"/>
<path d="M18.2314 16.597C17.2398 16.2521 16.3837 15.6261 15.7789 14.8039C15.174 13.9816 14.8497 13.0026 14.8497 11.9995C14.8497 10.9963 15.174 10.0174 15.7789 9.19513C16.3837 8.37284 17.2398 7.7469 18.2314 7.40199C18.2949 7.37541 18.3494 7.33249 18.3886 7.27807C18.4279 7.22365 18.4503 7.15989 18.4535 7.09399V6.63599C18.4577 6.59554 18.4507 6.55474 18.433 6.51771C18.4154 6.48069 18.3877 6.44874 18.3529 6.4251C18.3181 6.40146 18.2773 6.38697 18.2347 6.38309C18.1921 6.37921 18.1492 6.38607 18.1103 6.40299C16.8607 6.78145 15.7701 7.52763 14.9962 8.53366C14.2223 9.53969 13.8052 10.7535 13.8052 11.9995C13.8052 13.2455 14.2223 14.4593 14.9962 15.4653C15.7701 16.4714 16.8607 17.2175 18.1103 17.596C18.1492 17.6129 18.1921 17.6198 18.2347 17.6159C18.2773 17.612 18.3181 17.5975 18.3529 17.5739C18.3877 17.5502 18.4154 17.5183 18.433 17.4813C18.4507 17.4442 18.4577 17.4034 18.4535 17.363V16.907C18.4506 16.841 18.4284 16.7771 18.3894 16.7225C18.3503 16.6679 18.2959 16.6248 18.2324 16.598L18.2314 16.597ZM21.8882 6.40399C21.8493 6.3874 21.8065 6.38078 21.764 6.3848C21.7215 6.38882 21.6809 6.40334 21.6462 6.42691C21.6115 6.45048 21.5839 6.48228 21.5662 6.51914C21.5484 6.556 21.5411 6.59663 21.5451 6.63699V7.09399C21.548 7.15995 21.5703 7.22381 21.6096 7.27827C21.6489 7.33273 21.7035 7.37561 21.7672 7.40199C22.7591 7.74671 23.6156 8.37263 24.2207 9.19503C24.8258 10.0174 25.1503 10.9966 25.1503 12C25.1503 13.0034 24.8258 13.9826 24.2207 14.805C23.6156 15.6274 22.7591 16.2533 21.7672 16.598C21.7014 16.6218 21.645 16.6642 21.6054 16.7194C21.5659 16.7747 21.5452 16.8402 21.5461 16.907V17.364C21.5422 17.4044 21.5495 17.445 21.5672 17.4818C21.585 17.5187 21.6126 17.5505 21.6473 17.5741C21.682 17.5976 21.7226 17.6122 21.7651 17.6162C21.8075 17.6202 21.8503 17.6136 21.8893 17.597C23.1389 17.2185 24.2295 16.4724 25.0034 15.4663C25.7773 14.4603 26.1944 13.2465 26.1944 12.0005C26.1944 10.7545 25.7773 9.54069 25.0034 8.53466C24.2295 7.52863 23.1389 6.78245 21.8893 6.40399H21.8882Z" fill="white"/>
</svg>
