<svg width="40" height="24" viewBox="0 0 40 24" fill="none" xmlns="http://www.w3.org/2000/svg">
<path opacity="0.07" d="M36.8421 0H3.15789C1.36842 0 0 1.3 0 3V21C0 22.7 1.47368 24 3.15789 24H36.8421C38.6316 24 40 22.7 40 21V3C40 1.3 38.5263 0 36.8421 0Z" fill="#004D70"/>
<path d="M36.8422 1C38.0001 1 38.9475 1.9 38.9475 3V21C38.9475 22.1 38.0001 23 36.8422 23H3.158C2.0001 23 1.05273 22.1 1.05273 21V3C1.05273 1.9 2.0001 1 3.158 1H36.8422Z" fill="white"/>
<path d="M38.9475 16.95V21C38.9475 22.1 38.0002 23 36.8423 23H24.4507C32.7623 21.185 37.1275 18.399 38.9475 16.95Z" fill="#EDA024"/>
<path d="M9.47363 11H30.5263V13H9.47363V11Z" fill="#494949"/>
<path d="M23.1581 12C23.1581 13.7 21.7897 15 20.0002 15C18.2107 15 16.8423 13.6 16.8423 12C16.8423 10.4 18.316 9 20.0002 9C21.7897 9 23.1581 10.3 23.1581 12Z" fill="#EDA024"/>
</svg>
