<svg width="40" height="24" viewBox="0 0 40 24" fill="none" xmlns="http://www.w3.org/2000/svg">
<path opacity="0.07" fill-rule="evenodd" clip-rule="evenodd" d="M36.8421 0H3.15789C1.36842 0 0 1.3 0 3V21C0 22.7 1.47368 24 3.15789 24H36.8421C38.6316 24 40 22.7 40 21V3C40 1.3 38.5263 0 36.8421 0Z" fill="#004D70"/>
<path fill-rule="evenodd" clip-rule="evenodd" d="M36.8422 1C38.0001 1 38.9475 1.9 38.9475 3V21C38.9475 22.1 38.0001 23 36.8422 23H3.158C2.0001 23 1.05273 22.1 1.05273 21V3C1.05273 1.9 2.0001 1 3.158 1H36.8422Z" fill="white"/>
<path d="M35.9126 13.184C35.3999 13.184 34.9841 13.584 34.9841 14.076C34.9841 14.569 35.3999 14.969 35.9126 14.969C36.4262 14.969 36.842 14.569 36.842 14.076C36.8431 13.8407 36.7459 13.6145 36.5716 13.4473C36.3973 13.28 36.1603 13.1853 35.9126 13.184ZM32.8568 12.494C32.8568 11.818 32.2568 11.271 31.5157 11.271C30.7747 11.271 30.1747 11.818 30.1747 12.493C30.1747 13.168 30.7747 13.716 31.5157 13.716C32.2568 13.716 32.8568 13.168 32.8568 12.493V12.494ZM32.862 10.118H34.342V14.868H32.862V14.565C32.4309 14.8486 31.919 15.0003 31.3947 15C29.9536 15 28.7862 13.878 28.7862 12.493C28.7862 11.109 29.9547 9.987 31.3947 9.987C31.9389 9.987 32.4431 10.147 32.862 10.422V10.118ZM21.0168 10.737V10.118H19.501V14.868H21.0199V12.651C21.0199 11.902 21.8641 11.501 22.4504 11.501H22.4673V10.119C21.8673 10.119 21.3136 10.366 21.0168 10.737ZM17.242 12.493C17.242 11.818 16.642 11.271 15.901 11.271C15.161 11.271 14.5599 11.818 14.5599 12.493C14.5599 13.168 15.1599 13.716 15.901 13.716C16.642 13.716 17.242 13.168 17.242 12.493ZM17.2473 10.118H18.7273V14.868H17.2473V14.565C16.8159 14.8488 16.3036 15.0005 15.7789 15C14.3389 15 13.1704 13.878 13.1704 12.493C13.1704 11.109 14.3389 9.987 15.7789 9.987C16.3231 9.987 16.8283 10.147 17.2462 10.422V10.118H17.2473ZM26.1557 9.99C25.5652 9.99 25.0052 10.167 24.6315 10.653V10.118H23.1578V14.868H24.6494V12.372C24.6494 11.65 25.1536 11.296 25.7599 11.296C26.4104 11.296 26.7841 11.67 26.7841 12.362V14.869H28.2631V11.848C28.2631 10.742 27.3473 9.99 26.1557 9.99ZM11.0157 14.87H12.5652V8H11.0157V14.868V14.87ZM4.21045 14.87H5.85045V8H4.21045V14.87ZM9.94729 8C9.95145 8.72288 9.80549 9.43944 9.51775 10.1087C9.23001 10.7779 8.80616 11.3866 8.27045 11.9L10.5378 14.87H8.5115L6.04729 11.642L6.68308 11.184C7.20171 10.8128 7.62188 10.3316 7.91008 9.7788C8.19829 9.226 8.34656 8.61688 8.34308 8H9.94729Z" fill="#0A0B09"/>
</svg>
