<svg width="40" height="24" viewBox="0 0 40 24" fill="none" xmlns="http://www.w3.org/2000/svg">
<path opacity="0.07" d="M36.4179 0H3.58214C3.44536 0 3.30834 0 3.1718 0.00067947C3.05653 0.00158543 2.9415 0.00271788 2.82623 0.00566225C2.57514 0.012004 2.32188 0.0260463 2.07394 0.0677205C1.82528 0.107648 1.58436 0.182075 1.3591 0.288548C0.906269 0.504411 0.538199 0.849374 0.307876 1.27378C0.194068 1.48497 0.114647 1.71095 0.0722567 1.94419C0.0273077 2.17679 0.0125664 2.41393 0.00579987 2.64903C0.00285465 2.75697 0.00108237 2.86493 0.000483322 2.97291C0 3.10065 0 3.22884 0 3.35726V20.6425C0 20.7709 0 20.8989 0.000483322 21.0273C0.00120831 21.1351 0.00265827 21.2432 0.00579987 21.3512C0.0125664 21.5858 0.0275494 21.8232 0.0722567 22.0556C0.11456 22.2888 0.1939 22.5148 0.307635 22.726C0.421985 22.9369 0.571246 23.1296 0.749875 23.2968C0.928198 23.4642 1.13375 23.6041 1.35886 23.7112C1.58771 23.8206 1.82213 23.8902 2.07418 23.9325C2.32188 23.974 2.57514 23.988 2.82623 23.9943C2.9415 23.9968 3.05653 23.9982 3.1718 23.9989C3.30834 23.9998 3.44536 23.9998 3.58214 23.9998H36.4179C36.5544 23.9998 36.6914 23.9998 36.828 23.9989C36.943 23.9984 37.058 23.9968 37.1738 23.9943C37.4244 23.988 37.6776 23.974 37.9261 23.9325C38.1748 23.8925 38.4157 23.818 38.6409 23.7112C39.0935 23.4951 39.4615 23.1502 39.6921 22.726C39.8088 22.5115 39.8828 22.2918 39.9275 22.0556C39.9725 21.8232 39.9869 21.5858 39.9937 21.3512C39.9969 21.2432 39.9986 21.1351 39.999 21.0273C40 20.8989 40 20.7709 40 20.6425V3.35749C40 3.22907 40 3.10087 39.999 2.97268C39.9986 2.86478 39.9968 2.75689 39.9937 2.64903C39.9869 2.41393 39.9725 2.17679 39.9275 1.94419C39.8854 1.71091 39.8061 1.4849 39.6921 1.27378C39.4617 0.849449 39.0937 0.504513 38.6409 0.288548C38.4156 0.182184 38.1747 0.107836 37.9261 0.067947C37.6776 0.0260463 37.4244 0.0122305 37.1738 0.00588874C37.0585 0.00314533 36.9432 0.00148432 36.828 0.00090596C36.6914 0 36.5544 0 36.4179 0Z" fill="#004D70"/>
<path d="M36.4178 0.799973L36.8219 0.800652C36.9311 0.801331 37.0406 0.802464 37.1505 0.805182C37.3422 0.810165 37.566 0.819904 37.7748 0.85501C37.956 0.885586 38.1082 0.932016 38.2542 1.00177C38.5463 1.14097 38.7836 1.36361 38.9318 1.63753C39.0058 1.77343 39.0551 1.91521 39.0877 2.08666C39.1249 2.28008 39.1353 2.49049 39.1404 2.67101C39.1435 2.77293 39.145 2.87485 39.1452 2.97903C39.1464 3.10519 39.1464 3.23111 39.1464 3.3575V20.6428C39.1464 20.7691 39.1464 20.8951 39.1455 21.0237C39.145 21.1256 39.1435 21.2276 39.1406 21.3295C39.1353 21.5098 39.1249 21.7202 39.0872 21.9159C39.0598 22.0715 39.0072 22.2224 38.9313 22.3632C38.7828 22.6372 38.5452 22.8598 38.2528 22.9989C38.1078 23.0682 37.956 23.1147 37.7764 23.145C37.5635 23.1806 37.3301 23.1903 37.1544 23.1948C37.044 23.1971 36.934 23.1987 36.8212 23.1991C36.687 23.2001 36.5522 23.2 36.4178 23.2H3.5768C3.44388 23.2 3.31097 23.2001 3.17564 23.1991C3.06688 23.1987 2.95813 23.1973 2.8494 23.1951C2.6696 23.1905 2.43615 23.1806 2.22494 23.1452C2.05795 23.1192 1.89614 23.0695 1.745 22.998C1.60004 22.929 1.46772 22.8388 1.35303 22.7308C1.23798 22.6231 1.14189 22.499 1.06835 22.3632C0.99241 22.2215 0.939776 22.07 0.912239 21.9136C0.87454 21.7181 0.863907 21.5086 0.859074 21.3297C0.856344 21.2274 0.854733 21.1251 0.854241 21.0228L0.853516 20.7222V3.27822L0.853999 2.97813C0.854498 2.87566 0.856109 2.77321 0.858832 2.67078C0.864149 2.4914 0.87454 2.2819 0.912481 2.08485C0.940072 1.92877 0.992706 1.7775 1.06859 1.63617C1.14206 1.50073 1.23776 1.37707 1.35375 1.26858C1.46872 1.16066 1.60118 1.07046 1.74621 1.00132C1.89698 0.930335 2.05828 0.881012 2.2247 0.85501C2.43374 0.819904 2.65776 0.810165 2.84964 0.805182C2.95887 0.802464 3.06834 0.801331 3.17685 0.800652L3.58211 0.799973H36.4178Z" fill="white"/>
<path d="M10.5144 8.10155C10.8537 7.70406 11.0837 7.17022 11.0231 6.62483C10.5267 6.64793 9.92111 6.93173 9.57022 7.32967C9.25533 7.67031 8.9767 8.22634 9.0492 8.74885C9.60647 8.79415 10.1633 8.48794 10.5144 8.10155Z" fill="#004D70"/>
<path d="M11.0166 8.85102C10.2071 8.80572 9.51929 9.28135 9.13288 9.28135C8.74622 9.28135 8.15439 8.87367 7.51423 8.88477C6.68122 8.89609 5.90839 9.33775 5.48548 10.0399C4.61599 11.4441 5.25591 13.5278 6.10172 14.6716C6.5123 15.2378 7.00722 15.8607 7.65923 15.8382C8.27546 15.8156 8.51688 15.4645 9.26555 15.4645C10.014 15.4645 10.2315 15.8382 10.8837 15.8269C11.5599 15.8156 11.9828 15.2607 12.3934 14.6945C12.8646 14.049 13.0572 13.4261 13.0693 13.3921C13.0572 13.3808 11.7653 12.9163 11.7532 11.5234C11.7411 10.3569 12.7677 9.80205 12.816 9.76785C12.2363 8.96426 11.3305 8.87367 11.0164 8.85102" fill="#004D70"/>
<path d="M19.0848 7.27261C20.8436 7.27261 22.0686 8.40891 22.0686 10.0632C22.0686 11.7234 20.8184 12.8656 19.0408 12.8656H17.0935V15.7682H15.6865V7.27261H19.0848ZM17.0935 11.7587H18.7078C19.933 11.7587 20.6299 11.1406 20.6299 10.0691C20.6299 8.99779 19.9328 8.38536 18.7141 8.38536H17.0935V11.7587Z" fill="#004D70"/>
<path d="M22.4175 14.0077C22.4175 12.9185 23.3032 12.2945 24.9363 12.2003L26.6888 12.1002V11.6291C26.6888 10.9406 26.2053 10.5637 25.3447 10.5637C24.6347 10.5637 24.1195 10.905 24.0132 11.4289H22.744C22.7819 10.3282 23.8873 9.52751 25.3824 9.52751C26.9904 9.52751 28.0395 10.3164 28.0395 11.541V15.768H26.7394V14.7495H26.7079C26.3372 15.4147 25.5204 15.8325 24.6347 15.8325C23.3283 15.8325 22.4175 15.1028 22.4175 14.0077ZM26.6888 13.4603V12.9833L25.1248 13.0775C24.2452 13.1305 23.787 13.4365 23.787 13.9721C23.787 14.4904 24.2643 14.826 25.0117 14.826C25.9663 14.826 26.6888 14.2548 26.6888 13.4603Z" fill="#004D70"/>
<path d="M29.235 18.0404V17.0221C29.323 17.0337 29.5363 17.0455 29.6494 17.0455C30.2712 17.0455 30.6231 16.7986 30.8367 16.1624L30.9624 15.7857L28.5815 9.60414H30.0513L31.7099 14.62H31.7413L33.3995 9.60414H34.8319L32.3631 16.0976C31.7976 17.5872 31.1506 18.076 29.7814 18.076C29.6746 18.076 29.329 18.0642 29.235 18.0404Z" fill="#004D70"/>
</svg>
