<svg width="40" height="24" viewBox="0 0 40 24" fill="none" xmlns="http://www.w3.org/2000/svg">
<path opacity="0.07" d="M36.8421 0H3.15789C1.36842 0 0 1.3 0 3V21C0 22.7 1.47368 24 3.15789 24H36.8421C38.6316 24 40 22.7 40 21V3C40 1.3 38.5263 0 36.8421 0Z" fill="#004D70"/>
<path d="M36.8422 1C38.0001 1 38.9475 1.9 38.9475 3V21C38.9475 22.1 38.0001 23 36.8422 23H3.158C2.0001 23 1.05273 22.1 1.05273 21V3C1.05273 1.9 2.0001 1 3.158 1H36.8422Z" fill="#006FCF"/>
<path d="M9.44308 10.268L10.2578 12.144H8.63466L9.44308 10.268ZM26.3641 10.346H23.2304V11.173H26.3136V12.412H23.2368V13.334H26.3705V14.073L28.5568 11.828L26.3705 9.488L26.3641 10.346ZM11.561 8.006H15.7662L16.6999 9.941L17.5652 8H28.481L29.6157 9.19L30.7894 8H35.8031L32.0989 11.852L35.7652 15.68H30.6768L29.542 14.49L28.3578 15.68H10.5578L10.0378 14.49H8.84834L8.32729 15.68H4.21045L7.6694 8H11.2799L11.561 8.006ZM20.6799 9.084H18.3231L16.7441 12.62L15.0336 9.084H12.6947V13.894L10.5262 9.084H8.42834L5.92098 14.596H7.55782L8.07782 13.406H10.8105L11.3304 14.596H14.1936V10.661L16.0368 14.602H17.2894L19.121 10.673V14.603H20.6557L20.681 9.083L20.6799 9.084ZM30.5115 11.852L33.1757 9.084H31.2578L29.5726 10.81L27.9431 9.084H21.7389V14.602H27.8547L29.5536 12.864L31.1831 14.602H33.1568L30.5126 11.852H30.5115Z" fill="white"/>
</svg>
