<svg width="40" height="24" viewBox="0 0 40 24" fill="none" xmlns="http://www.w3.org/2000/svg">
<path d="M36.8421 0H3.15789C1.41384 0 0 1.34315 0 3V21C0 22.6569 1.41384 24 3.15789 24H36.8421C38.5862 24 40 22.6569 40 21V3C40 1.34315 38.5862 0 36.8421 0Z" fill="black" fill-opacity="0.07"/>
<path d="M36.8422 1H3.158C1.99529 1 1.05273 1.89543 1.05273 3V21C1.05273 22.1046 1.99529 23 3.158 23H36.8422C38.0049 23 38.9475 22.1046 38.9475 21V3C38.9475 1.89543 38.0049 1 36.8422 1Z" fill="white"/>
<path d="M19.6401 4.25L19.5327 4.596V14.63L19.6401 14.731L24.5422 11.978L19.6401 4.25Z" fill="#343434"/>
<path d="M19.64 4.25L14.7368 11.978L19.64 14.732V9.862V4.25Z" fill="#8C8C8C"/>
<path d="M19.6402 15.613L19.5791 15.683V19.258L19.6402 19.425L24.5454 12.862L19.6402 15.613Z" fill="#3C3C3B"/>
<path d="M19.64 19.425V15.613L14.7368 12.862L19.64 19.425Z" fill="#8C8C8C"/>
<path d="M19.6401 14.731L24.5422 11.978L19.6401 9.86099V14.731Z" fill="#141414"/>
<path d="M14.7368 11.978L19.64 14.731V9.86099L14.7368 11.978Z" fill="#393939"/>
</svg>
