<svg width="40" height="24" viewBox="0 0 40 24" fill="none" xmlns="http://www.w3.org/2000/svg">
<path opacity="0.07" d="M36.8421 0H3.15789C1.36842 0 0 1.3 0 3V21C0 22.7 1.47368 24 3.15789 24H36.8421C38.6316 24 40 22.7 40 21V3C40 1.3 38.5263 0 36.8421 0Z" fill="#004D70"/>
<path d="M36.8422 1C38.0001 1 38.9475 1.9 38.9475 3V21C38.9475 22.1 38.0001 23 36.8422 23H3.158C2.0001 23 1.05273 22.1 1.05273 21V3C1.05273 1.9 2.0001 1 3.158 1H36.8422Z" fill="#5A31F4"/>
<path d="M22.5072 9.71301C22.5072 11.381 21.2682 12.571 19.5377 12.571H17.9072C17.8802 12.5714 17.854 12.5791 17.8316 12.5933C17.8092 12.6075 17.7916 12.6275 17.7809 12.651C17.774 12.6665 17.7704 12.6832 17.7703 12.7V14.892C17.7703 14.909 17.7668 14.9259 17.7599 14.9416C17.753 14.9573 17.7429 14.9716 17.7302 14.9836C17.7175 14.9956 17.7024 15.0051 17.6858 15.0115C17.6692 15.0179 17.6514 15.0211 17.6335 15.021H16.4924C16.4561 15.021 16.4213 15.0073 16.3957 14.9829C16.37 14.9585 16.3556 14.9255 16.3556 14.891V6.98601C16.3552 6.96025 16.363 6.93498 16.378 6.91355C16.3931 6.89212 16.4146 6.87554 16.4398 6.86601C16.4565 6.85938 16.4744 6.85598 16.4924 6.85601H19.5451C21.2682 6.85601 22.5072 8.04601 22.5072 9.71401V9.71301ZM21.084 9.71301C21.084 8.75501 20.3914 8.05501 19.4524 8.05501H17.9072C17.8892 8.05501 17.8714 8.05837 17.8548 8.0649C17.8382 8.07144 17.8231 8.08101 17.8104 8.09308C17.7977 8.10515 17.7876 8.11949 17.7807 8.13526C17.7739 8.15103 17.7703 8.16793 17.7703 8.18501V11.235C17.7701 11.2521 17.7736 11.2691 17.7804 11.2849C17.7873 11.3007 17.7975 11.315 17.8103 11.327C17.823 11.3391 17.8381 11.3487 17.8547 11.3552C17.8714 11.3618 17.8892 11.3651 17.9072 11.365H19.4524C20.3914 11.37 21.084 10.67 21.084 9.71301ZM22.8461 13.504C22.8341 13.2478 22.8902 12.9929 23.0092 12.7627C23.1282 12.5325 23.3064 12.3345 23.5272 12.187C23.9724 11.871 24.6682 11.707 25.6903 11.673L26.7777 11.637V11.334C26.7777 10.727 26.3461 10.471 25.6535 10.471C24.9609 10.471 24.5219 10.702 24.4219 11.081C24.4134 11.1076 24.3959 11.1309 24.3721 11.1471C24.3483 11.1634 24.3196 11.1718 24.2903 11.171H23.2145C23.1849 11.1714 23.156 11.1626 23.1321 11.146C23.1082 11.1294 23.0906 11.1059 23.0819 11.079C23.0762 11.0612 23.0748 11.0424 23.0777 11.024C23.2377 10.126 24.0293 9.44401 25.703 9.44401C27.484 9.44401 28.1272 10.227 28.1272 11.72V14.892C28.127 14.9092 28.1233 14.9261 28.1163 14.9419C28.1092 14.9577 28.0989 14.972 28.086 14.984C28.0731 14.996 28.0578 15.0054 28.041 15.0118C28.0242 15.0181 28.0063 15.0213 27.9882 15.021H26.904C26.8677 15.021 26.8329 15.0073 26.8072 14.9829C26.7816 14.9585 26.7672 14.9255 26.7672 14.891V14.655C26.7675 14.6354 26.7615 14.6162 26.7501 14.5999C26.7386 14.5837 26.7222 14.5711 26.703 14.564C26.684 14.5569 26.6632 14.5552 26.6432 14.5591C26.6232 14.563 26.6048 14.5724 26.5903 14.586C26.264 14.92 25.7398 15.161 24.8987 15.161C23.6619 15.161 22.8461 14.554 22.8461 13.504ZM26.7777 12.817V12.571L25.3682 12.641C24.6261 12.677 24.1945 12.967 24.1945 13.457C24.1945 13.901 24.5903 14.147 25.283 14.147C26.223 14.147 26.7777 13.667 26.7777 12.817ZM29.2156 17.417V16.498C29.2159 16.4787 29.2206 16.4598 29.2295 16.4425C29.2385 16.4252 29.2513 16.41 29.2672 16.398C29.2829 16.3859 29.3012 16.3772 29.3209 16.3726C29.3405 16.3679 29.361 16.3674 29.3809 16.371C29.5472 16.4 29.7156 16.415 29.8851 16.415C30.1753 16.4301 30.4625 16.3519 30.7003 16.193C30.938 16.034 31.1125 15.8037 31.1956 15.539L31.2661 15.328C31.2766 15.2995 31.2766 15.2685 31.2661 15.24L29.0082 9.76901C28.9951 9.73898 28.9944 9.70539 29.0061 9.67485C29.0177 9.64431 29.041 9.61903 29.0714 9.60401C29.0915 9.59393 29.1139 9.58878 29.1366 9.58901H30.2314C30.2595 9.58908 30.2869 9.59724 30.31 9.61241C30.3331 9.62759 30.3508 9.64906 30.3609 9.67401L31.8935 13.533C31.903 13.5589 31.9208 13.5813 31.9444 13.5971C31.968 13.6129 31.9962 13.6213 32.0251 13.621C32.0539 13.621 32.0819 13.6125 32.1055 13.5968C32.129 13.581 32.1469 13.5587 32.1566 13.533L33.4882 9.68501C33.4972 9.65848 33.515 9.63541 33.5389 9.6192C33.5628 9.60299 33.5915 9.59451 33.6209 9.59501H34.7535C34.7875 9.5952 34.8202 9.60704 34.8458 9.62835C34.8713 9.64966 34.8879 9.67901 34.8924 9.71101C34.895 9.73234 34.8921 9.75395 34.884 9.77401L32.4682 15.85C31.9124 17.263 30.9598 17.623 29.9103 17.623C29.7112 17.6282 29.5123 17.606 29.3198 17.557C29.2875 17.5495 29.2592 17.5312 29.2399 17.5055C29.2206 17.4799 29.2116 17.4484 29.2145 17.417H29.2156ZM9.02085 6.40001C7.58454 6.38981 6.19814 6.90012 5.14401 7.82701C5.09915 7.86576 5.07116 7.91904 5.06551 7.97639C5.05986 8.03374 5.07697 8.09102 5.11348 8.13701L5.76401 8.97601C5.78509 9.0043 5.81247 9.02783 5.8442 9.04493C5.87594 9.06203 5.91124 9.07229 5.94762 9.07496C5.984 9.07763 6.02054 9.07266 6.05467 9.0604C6.08879 9.04813 6.11966 9.02888 6.14506 9.00401C6.52393 8.6466 6.97387 8.36439 7.46868 8.17383C7.9635 7.98326 8.49328 7.88814 9.02717 7.89401C11.2587 7.89401 12.424 9.47801 12.424 11.044C12.424 12.744 11.1998 13.942 9.4398 13.965C8.0798 13.965 7.05454 13.115 7.05454 11.991C7.0557 11.7068 7.1237 11.4264 7.25355 11.1703C7.3834 10.9143 7.57183 10.689 7.80506 10.511C7.85472 10.4723 7.88625 10.4165 7.89276 10.3558C7.89927 10.2951 7.88023 10.2344 7.8398 10.187L7.15559 9.37201C7.13493 9.34695 7.10915 9.32612 7.0798 9.31077C7.05045 9.29542 7.01814 9.28588 6.9848 9.2827C6.95147 9.27952 6.9178 9.28279 6.88583 9.29229C6.85385 9.3018 6.82423 9.31735 6.79875 9.33801C6.37969 9.65735 6.04094 10.0615 5.80717 10.521C5.57424 10.9795 5.45299 11.4819 5.45243 11.991C5.45243 13.926 7.19454 15.443 9.42612 15.455H9.45769C12.1072 15.423 14.023 13.571 14.023 11.04C14.023 8.79301 12.2682 6.40001 9.02085 6.40001Z" fill="white"/>
</svg>
