<svg width="40" height="24" viewBox="0 0 40 24" fill="none" xmlns="http://www.w3.org/2000/svg">
<path opacity="0.07" d="M36.8421 0H3.15789C1.36842 0 0 1.3 0 3V21C0 22.7 1.47368 24 3.15789 24H36.8421C38.6316 24 40 22.7 40 21V3C40 1.3 38.5263 0 36.8421 0Z" fill="#004D70"/>
<path d="M36.8422 1C38.0001 1 38.9475 1.9 38.9475 3V21C38.9475 22.1 38.0001 23 36.8422 23H3.158C2.0001 23 1.05273 22.1 1.05273 21V3C1.05273 1.9 2.0001 1 3.158 1H36.8422Z" fill="white"/>
<path d="M12.6317 12V15.7C12.6317 16 12.4211 16 12.1053 15.9C10.1053 15.1 8.94745 12.6 9.68429 10.5C10.1053 9.4 10.9475 8.5 12.1053 8.1C12.5264 7.9 12.6317 8 12.6317 8.3V12ZM14.7369 12V8.3C14.7369 8 14.7369 8 15.0527 8.1C17.2632 8.9 18.4211 11.4 17.579 13.5C17.158 14.6 16.3159 15.5 15.158 15.9C14.7369 16.1 14.7369 16 14.7369 15.7V12ZM22.3159 5H13.6843C17.6843 5 20.8422 8.1 20.8422 12C20.8422 15.9 17.6843 19 13.6843 19H22.3159C26.3159 19 29.4738 15.9 29.4738 12C29.4738 8.1 26.3159 5 22.3159 5Z" fill="#3086C8"/>
</svg>
