<svg width="40" height="24" viewBox="0 0 40 24" fill="none" xmlns="http://www.w3.org/2000/svg">
<path d="M36.8421 0H3.15789C1.41384 0 0 1.34315 0 3V21C0 22.6569 1.41384 24 3.15789 24H36.8421C38.5862 24 40 22.6569 40 21V3C40 1.34315 38.5862 0 36.8421 0Z" fill="black" fill-opacity="0.07"/>
<path fill-rule="evenodd" clip-rule="evenodd" d="M36.8422 1C38.0001 1 38.9475 1.9 38.9475 3V21C38.9475 22.1 38.0001 23 36.8422 23H3.158C2.0001 23 1.05273 22.1 1.05273 21V3C1.05273 1.9 2.0001 1 3.158 1H36.8422Z" fill="#3D95CE"/>
<path d="M25.9739 8.35999C25.9739 11.424 23.2823 15.405 21.097 18.2H16.1076L14.1055 6.56999L18.4749 6.16799L19.5328 14.443C20.5223 12.877 21.7423 10.418 21.7423 8.74099C21.7423 7.82299 21.5802 7.19799 21.3276 6.68299L25.3065 5.89999C25.7665 6.63799 25.9739 7.39899 25.9739 8.35999Z" fill="white"/>
</svg>
