<svg width="24" height="24" viewBox="0 0 24 24" fill="none" xmlns="http://www.w3.org/2000/svg">
<path d="M21.7834 17.1145C21.0487 16.0851 20.1947 15.2063 19.2214 14.4782C18.248 13.7062 17.2119 13.1099 16.0314 12.7208C19.9309 9.78326 19.6735 4.8686 17.1366 2.19473C14.5432 -0.535639 10.1852 -0.755323 7.37834 1.74281C5.92779 3.03581 5.13658 4.66775 5.03611 6.5947C4.90424 9.14932 5.9843 11.1516 8.0314 12.7208C5.62637 13.6246 3.68603 15.0682 2.22292 17.1145C0.747253 19.1669 0.0313972 21.4705 0 24C0.6719 24 1.3124 24 1.87127 24C2.03454 23.0836 2.12245 22.186 2.36107 21.3324C3.58556 16.9387 7.573 14.0138 12 14.0012C16.4333 14.02 20.4144 16.9387 21.6389 21.3324C21.8776 22.186 21.9655 23.0899 22.1287 24C22.6876 24 23.3281 24 24 24C23.9623 21.4705 23.2465 19.1669 21.7834 17.1145ZM6.98901 6.95875C6.99529 4.15306 9.21193 1.96249 12.044 1.96877C14.8509 1.97504 17.0487 4.19072 17.0424 7.01524C17.0361 9.8272 14.8257 12.024 12 12.024C9.17426 12.024 6.98273 9.80837 6.98901 6.95875Z" fill="black"/>
</svg>
