<svg width="296" height="48" viewBox="0 0 296 48" fill="none" xmlns="http://www.w3.org/2000/svg">
<path d="M69.4494 25.8852C69.4494 23.6867 68.6559 22.5874 67.0685 22.5874C66.7242 22.5874 66.3796 22.6332 66.0353 22.7248C65.7057 22.8164 65.4362 22.9309 65.2267 23.0683V29.2747C65.3913 29.3053 65.6011 29.3358 65.8556 29.3663C66.11 29.3816 66.3873 29.3892 66.6866 29.3892C67.6002 29.3892 68.2888 29.0686 68.7531 28.4274C69.2174 27.7861 69.4494 26.9387 69.4494 25.8852ZM72.8636 25.9769C72.8636 26.9387 72.7214 27.809 72.4368 28.5877C72.1673 29.3663 71.7703 30.0305 71.2463 30.5801C70.7223 31.1298 70.0783 31.5574 69.3147 31.8627C68.551 32.1529 67.6823 32.2978 66.7091 32.2978C66.3048 32.2978 65.878 32.2749 65.4288 32.2291C64.9947 32.1987 64.5602 32.1529 64.126 32.0917C63.7067 32.0305 63.3023 31.9618 62.9131 31.8856C62.5239 31.794 62.1793 31.7023 61.8799 31.6107V14.7778L65.2267 14.2281V20.2285C65.6011 20.0605 65.9903 19.9307 66.3947 19.8391C66.799 19.7475 67.2331 19.7017 67.6974 19.7017C68.5359 19.7017 69.2771 19.8544 69.9211 20.1598C70.5651 20.4499 71.1042 20.8697 71.5383 21.4194C71.9725 21.969 72.302 22.6332 72.5267 23.4118C72.7513 24.1752 72.8636 25.0303 72.8636 25.9769ZM86.487 25.9539C86.487 26.9006 86.3522 27.7708 86.0827 28.5648C85.8131 29.3434 85.4236 30.0152 84.9146 30.5801C84.4054 31.1298 83.7916 31.5574 83.0728 31.8627C82.3688 32.1679 81.5753 32.3207 80.6919 32.3207C79.8233 32.3207 79.0297 32.1679 78.311 31.8627C77.607 31.5574 77.0005 31.1298 76.4916 30.5801C75.9823 30.0152 75.5854 29.3434 75.3011 28.5648C75.0165 27.7708 74.8743 26.9006 74.8743 25.9539C74.8743 25.0073 75.0165 24.1447 75.3011 23.366C75.6005 22.5874 76.0048 21.9232 76.514 21.3736C77.038 20.8239 77.6519 20.3964 78.3559 20.0911C79.0746 19.7857 79.8531 19.633 80.6919 19.633C81.5454 19.633 82.3239 19.7857 83.0279 20.0911C83.7467 20.3964 84.3605 20.8239 84.8697 21.3736C85.3786 21.9232 85.7756 22.5874 86.0602 23.366C86.3445 24.1447 86.487 25.0073 86.487 25.9539ZM83.0728 25.9539C83.0728 24.9005 82.863 24.076 82.4439 23.4805C82.0396 22.8698 81.4556 22.5645 80.6919 22.5645C79.9282 22.5645 79.3365 22.8698 78.9174 23.4805C78.498 24.076 78.2885 24.9005 78.2885 25.9539C78.2885 27.0074 78.498 27.8472 78.9174 28.4732C79.3365 29.0839 79.9282 29.3892 80.6919 29.3892C81.4556 29.3892 82.0396 29.0839 82.4439 28.4732C82.863 27.8472 83.0728 27.0074 83.0728 25.9539ZM92.471 29.5496C93.0851 29.5496 93.5193 29.4885 93.7737 29.3663C94.0285 29.2442 94.1556 29.0075 94.1556 28.6564C94.1556 28.3816 93.991 28.1449 93.6614 27.9464C93.3322 27.7327 92.8303 27.496 92.1565 27.2365C91.6325 27.038 91.1534 26.8318 90.719 26.6181C90.2999 26.4044 89.9405 26.1524 89.6408 25.8623C89.3414 25.557 89.1094 25.1982 88.9445 24.786C88.7799 24.3737 88.6974 23.8775 88.6974 23.2973C88.6974 22.1675 89.1094 21.2743 89.9328 20.6178C90.7565 19.9613 91.887 19.633 93.3245 19.633C94.0433 19.633 94.7322 19.7017 95.391 19.8391C96.05 19.9613 96.574 20.0987 96.9633 20.2514L96.3793 22.908C95.99 22.7706 95.5633 22.6484 95.099 22.5416C94.6497 22.4347 94.1408 22.3812 93.5716 22.3812C92.5236 22.3812 91.9993 22.679 91.9993 23.2744C91.9993 23.4118 92.0217 23.534 92.0667 23.6409C92.1116 23.7477 92.2014 23.8546 92.3362 23.9615C92.471 24.0531 92.6507 24.16 92.8753 24.2821C93.115 24.389 93.4143 24.5111 93.7737 24.6485C94.5076 24.9234 95.114 25.1982 95.5931 25.473C96.0725 25.7326 96.4467 26.0227 96.7162 26.3433C97.0008 26.6486 97.1956 26.9922 97.3002 27.3739C97.4202 27.7556 97.4799 28.1983 97.4799 28.7022C97.4799 29.8931 97.0383 30.7939 96.1546 31.4046C95.2863 32.0154 94.051 32.3207 92.4485 32.3207C91.4005 32.3207 90.5245 32.2291 89.8205 32.0459C89.1319 31.8627 88.6525 31.7099 88.383 31.5878L88.9445 28.8167C89.5137 29.0457 90.0977 29.2289 90.6965 29.3663C91.2956 29.4885 91.887 29.5496 92.471 29.5496ZM103.373 29.5496C103.987 29.5496 104.421 29.4885 104.676 29.3663C104.93 29.2442 105.057 29.0075 105.057 28.6564C105.057 28.3816 104.893 28.1449 104.563 27.9464C104.234 27.7327 103.732 27.496 103.058 27.2365C102.534 27.038 102.055 26.8318 101.621 26.6181C101.201 26.4044 100.842 26.1524 100.543 25.8623C100.243 25.557 100.011 25.1982 99.8463 24.786C99.6817 24.3737 99.5993 23.8775 99.5993 23.2973C99.5993 22.1675 100.011 21.2743 100.835 20.6178C101.658 19.9613 102.789 19.633 104.226 19.633C104.945 19.633 105.634 19.7017 106.293 19.8391C106.952 19.9613 107.476 20.0987 107.865 20.2514L107.281 22.908C106.892 22.7706 106.465 22.6484 106.001 22.5416C105.552 22.4347 105.042 22.3812 104.473 22.3812C103.425 22.3812 102.901 22.679 102.901 23.2744C102.901 23.4118 102.924 23.534 102.968 23.6409C103.013 23.7477 103.103 23.8546 103.238 23.9615C103.373 24.0531 103.552 24.16 103.777 24.2821C104.017 24.389 104.316 24.5111 104.676 24.6485C105.409 24.9234 106.016 25.1982 106.495 25.473C106.974 25.7326 107.348 26.0227 107.618 26.3433C107.903 26.6486 108.097 26.9922 108.202 27.3739C108.322 27.7556 108.382 28.1983 108.382 28.7022C108.382 29.8931 107.94 30.7939 107.056 31.4046C106.188 32.0154 104.952 32.3207 103.35 32.3207C102.302 32.3207 101.426 32.2291 100.722 32.0459C100.033 31.8627 99.5543 31.7099 99.2848 31.5878L99.8463 28.8167C100.415 29.0457 100.999 29.2289 101.598 29.3663C102.197 29.4885 102.789 29.5496 103.373 29.5496ZM222.688 26.0685C222.688 25.015 222.456 24.1752 221.992 23.5492C221.528 22.908 220.839 22.5874 219.925 22.5874C219.626 22.5874 219.349 22.6026 219.094 22.6332C218.84 22.6484 218.63 22.6713 218.465 22.7019V28.8625C218.675 28.9999 218.945 29.1144 219.274 29.206C219.618 29.2976 219.963 29.3434 220.307 29.3434C221.894 29.3434 222.688 28.2518 222.688 26.0685ZM226.102 25.9769C226.102 26.9082 225.99 27.7556 225.765 28.519C225.54 29.2824 225.211 29.9389 224.777 30.4885C224.343 31.0382 223.804 31.4658 223.16 31.771C222.516 32.0763 221.775 32.2291 220.936 32.2291C220.472 32.2291 220.037 32.1833 219.633 32.0917C219.229 32.0001 218.84 31.8702 218.465 31.7023V36.2369H215.118V20.3659C215.418 20.2743 215.762 20.1903 216.152 20.114C216.541 20.0223 216.945 19.946 217.364 19.8849C217.799 19.8239 218.233 19.778 218.667 19.7475C219.117 19.7017 219.543 19.6788 219.948 19.6788C220.921 19.6788 221.789 19.8315 222.553 20.1369C223.317 20.427 223.961 20.8468 224.485 21.3965C225.009 21.9308 225.406 22.5874 225.675 23.366C225.96 24.1447 226.102 25.015 226.102 25.9769ZM233.391 32.2291C232.418 32.2137 231.624 32.107 231.01 31.9085C230.411 31.7099 229.932 31.435 229.573 31.084C229.228 30.7176 228.989 30.2824 228.854 29.7786C228.734 29.2595 228.674 28.6793 228.674 28.038V14.7778L232.021 14.2281V27.351C232.021 27.6563 232.044 27.9311 232.089 28.1754C232.133 28.4197 232.216 28.6259 232.336 28.7938C232.47 28.9617 232.657 29.0991 232.897 29.206C233.137 29.3129 233.459 29.3816 233.863 29.4121L233.391 32.2291ZM240.625 29.6183C240.955 29.6183 241.269 29.6106 241.568 29.5954C241.868 29.5801 242.108 29.5572 242.287 29.5267V26.9387C242.152 26.9082 241.95 26.8777 241.681 26.8471C241.411 26.8166 241.164 26.8013 240.94 26.8013C240.625 26.8013 240.326 26.8242 240.041 26.87C239.772 26.9006 239.532 26.9693 239.322 27.0761C239.113 27.183 238.948 27.3281 238.828 27.5113C238.708 27.6945 238.648 27.9235 238.648 28.1983C238.648 28.7327 238.821 29.1068 239.165 29.3205C239.524 29.519 240.011 29.6183 240.625 29.6183ZM240.356 19.633C241.344 19.633 242.168 19.7475 242.826 19.9765C243.485 20.2056 244.009 20.5338 244.399 20.9613C244.803 21.3888 245.088 21.9079 245.252 22.5187C245.417 23.1294 245.499 23.8088 245.499 24.5569V31.6565C245.02 31.7635 244.354 31.8856 243.5 32.023C242.647 32.1758 241.613 32.252 240.4 32.252C239.637 32.252 238.94 32.1833 238.312 32.0459C237.698 31.9085 237.166 31.687 236.717 31.3817C236.268 31.0611 235.923 30.6489 235.684 30.145C235.444 29.6412 235.324 29.0228 235.324 28.29C235.324 27.5876 235.459 26.9922 235.728 26.5036C236.013 26.015 236.387 25.6257 236.852 25.3356C237.316 25.0455 237.847 24.8394 238.446 24.7172C239.045 24.5798 239.667 24.5111 240.311 24.5111C240.745 24.5111 241.127 24.534 241.456 24.5798C241.8 24.6104 242.078 24.6562 242.287 24.7172V24.3966C242.287 23.8164 242.115 23.3508 241.771 22.9996C241.426 22.6484 240.827 22.4729 239.974 22.4729C239.405 22.4729 238.843 22.5187 238.289 22.6103C237.735 22.6866 237.256 22.8011 236.852 22.9538L236.425 20.2056C236.62 20.1445 236.859 20.0834 237.144 20.0223C237.443 19.946 237.765 19.8849 238.109 19.8391C238.454 19.778 238.813 19.7322 239.188 19.7017C239.577 19.6559 239.966 19.633 240.356 19.633ZM248.526 20.3659C249.095 20.1979 249.828 20.0452 250.727 19.9078C251.625 19.7551 252.569 19.6788 253.557 19.6788C254.56 19.6788 255.391 19.8162 256.05 20.0911C256.724 20.3506 257.256 20.7247 257.645 21.2132C258.034 21.7018 258.311 22.282 258.476 22.9538C258.641 23.6256 258.723 24.3737 258.723 25.1982V32.0001H255.376V25.6104C255.376 24.5111 255.234 23.7325 254.95 23.2744C254.665 22.8164 254.133 22.5874 253.355 22.5874C253.115 22.5874 252.861 22.6026 252.591 22.6332C252.322 22.6484 252.082 22.6713 251.872 22.7019V32.0001H248.526V20.3659ZM261.752 20.3659C262.321 20.1979 263.055 20.0452 263.954 19.9078C264.852 19.7551 265.796 19.6788 266.784 19.6788C267.787 19.6788 268.618 19.8162 269.277 20.0911C269.951 20.3506 270.483 20.7247 270.872 21.2132C271.261 21.7018 271.538 22.282 271.703 22.9538C271.868 23.6256 271.95 24.3737 271.95 25.1982V32.0001H268.603V25.6104C268.603 24.5111 268.461 23.7325 268.176 23.2744C267.892 22.8164 267.36 22.5874 266.582 22.5874C266.342 22.5874 266.088 22.6026 265.818 22.6332C265.548 22.6484 265.309 22.6713 265.099 22.7019V32.0001H261.752V20.3659ZM274.418 26.0685C274.418 24.9997 274.575 24.0684 274.889 23.2744C275.219 22.4652 275.646 21.7934 276.17 21.259C276.694 20.7247 277.293 20.3201 277.967 20.0452C278.656 19.7704 279.359 19.633 280.078 19.633C281.755 19.633 283.08 20.1598 284.054 21.2132C285.027 22.2515 285.514 23.7859 285.514 25.8165C285.514 26.015 285.506 26.2364 285.491 26.4807C285.476 26.7097 285.461 26.9158 285.446 27.099H277.854C277.929 27.8014 278.251 28.3587 278.82 28.7709C279.389 29.1831 280.153 29.3892 281.111 29.3892C281.725 29.3892 282.324 29.3358 282.908 29.2289C283.507 29.1068 283.994 28.9617 284.368 28.7938L284.817 31.5649C284.638 31.6565 284.398 31.7481 284.099 31.8398C283.799 31.9314 283.462 32.0076 283.088 32.0688C282.729 32.145 282.339 32.2062 281.92 32.252C281.501 32.2978 281.081 32.3207 280.662 32.3207C279.599 32.3207 278.671 32.1604 277.877 31.8398C277.098 31.5191 276.447 31.084 275.923 30.5343C275.414 29.9694 275.032 29.3053 274.777 28.5419C274.538 27.7785 274.418 26.954 274.418 26.0685ZM282.279 24.763C282.264 24.4729 282.212 24.1905 282.122 23.9157C282.047 23.6409 281.92 23.3966 281.74 23.1828C281.576 22.9691 281.358 22.7935 281.089 22.6561C280.834 22.5187 280.512 22.45 280.123 22.45C279.749 22.45 279.427 22.5187 279.157 22.6561C278.888 22.7782 278.663 22.9462 278.483 23.1599C278.304 23.3737 278.161 23.6256 278.057 23.9157C277.967 24.1905 277.899 24.4729 277.854 24.763H282.279ZM295.217 22.9767C294.917 22.9004 294.565 22.824 294.161 22.7477C293.757 22.6561 293.323 22.6103 292.858 22.6103C292.649 22.6103 292.394 22.6332 292.095 22.679C291.81 22.7095 291.593 22.7477 291.443 22.7935V32.0001H288.096V20.5949C288.696 20.3812 289.399 20.1827 290.208 19.9994C291.032 19.8009 291.945 19.7017 292.948 19.7017C293.128 19.7017 293.345 19.717 293.6 19.7475C293.854 19.7628 294.109 19.7933 294.363 19.8391C294.618 19.8697 294.872 19.9155 295.127 19.9765C295.381 20.0223 295.599 20.0834 295.778 20.1598L295.217 22.9767Z" fill="#606161"/>
<path d="M123.848 26.0685C123.848 25.015 123.616 24.1752 123.152 23.5492C122.688 22.908 121.999 22.5874 121.086 22.5874C120.786 22.5874 120.509 22.6026 120.254 22.6332C120 22.6484 119.79 22.6713 119.626 22.7019V28.8625C119.835 28.9999 120.105 29.1144 120.434 29.206C120.778 29.2976 121.123 29.3434 121.467 29.3434C123.055 29.3434 123.848 28.2518 123.848 26.0685ZM127.262 25.9769C127.262 26.9082 127.15 27.7556 126.926 28.519C126.701 29.2824 126.371 29.9389 125.937 30.4885C125.503 31.0382 124.964 31.4658 124.32 31.771C123.676 32.0763 122.935 32.2291 122.096 32.2291C121.632 32.2291 121.198 32.1833 120.794 32.0917C120.389 32.0001 120 31.8702 119.626 31.7023V36.2369H116.279V20.3659C116.578 20.2743 116.923 20.1903 117.312 20.114C117.701 20.0223 118.106 19.946 118.525 19.8849C118.959 19.8239 119.394 19.778 119.828 19.7475C120.277 19.7017 120.704 19.6788 121.108 19.6788C122.081 19.6788 122.95 19.8315 123.714 20.1369C124.477 20.427 125.121 20.8468 125.645 21.3965C126.169 21.9308 126.566 22.5874 126.836 23.366C127.12 24.1447 127.262 25.015 127.262 25.9769ZM129.273 26.0685C129.273 24.9997 129.43 24.0684 129.745 23.2744C130.074 22.4652 130.501 21.7934 131.025 21.259C131.549 20.7247 132.148 20.3201 132.822 20.0452C133.511 19.7704 134.215 19.633 134.934 19.633C136.61 19.633 137.936 20.1598 138.909 21.2132C139.882 22.2515 140.369 23.7859 140.369 25.8165C140.369 26.015 140.362 26.2364 140.347 26.4807C140.332 26.7097 140.317 26.9158 140.302 27.099H132.71C132.785 27.8014 133.106 28.3587 133.676 28.7709C134.245 29.1831 135.008 29.3892 135.967 29.3892C136.581 29.3892 137.18 29.3358 137.764 29.2289C138.362 29.1068 138.849 28.9617 139.224 28.7938L139.673 31.5649C139.493 31.6565 139.254 31.7481 138.954 31.8398C138.654 31.9314 138.318 32.0076 137.943 32.0688C137.584 32.145 137.194 32.2062 136.775 32.252C136.356 32.2978 135.937 32.3207 135.518 32.3207C134.454 32.3207 133.526 32.1604 132.732 31.8398C131.954 31.5191 131.302 31.084 130.778 30.5343C130.269 29.9694 129.887 29.3053 129.633 28.5419C129.393 27.7785 129.273 26.954 129.273 26.0685ZM137.135 24.763C137.12 24.4729 137.067 24.1905 136.978 23.9157C136.902 23.6409 136.775 23.3966 136.596 23.1828C136.431 22.9691 136.214 22.7935 135.944 22.6561C135.69 22.5187 135.368 22.45 134.978 22.45C134.604 22.45 134.282 22.5187 134.013 22.6561C133.743 22.7782 133.518 22.9462 133.339 23.1599C133.159 23.3737 133.017 23.6256 132.912 23.9157C132.822 24.1905 132.755 24.4729 132.71 24.763H137.135ZM150.072 22.9767C149.773 22.9004 149.421 22.824 149.016 22.7477C148.612 22.6561 148.178 22.6103 147.714 22.6103C147.504 22.6103 147.25 22.6332 146.95 22.679C146.666 22.7095 146.448 22.7477 146.298 22.7935V32.0001H142.952V20.5949C143.551 20.3812 144.254 20.1827 145.063 19.9994C145.887 19.8009 146.8 19.7017 147.803 19.7017C147.983 19.7017 148.2 19.717 148.455 19.7475C148.71 19.7628 148.964 19.7933 149.218 19.8391C149.473 19.8697 149.728 19.9155 149.982 19.9765C150.237 20.0223 150.454 20.0834 150.634 20.1598L150.072 22.9767ZM155.819 29.5496C156.434 29.5496 156.868 29.4885 157.122 29.3663C157.377 29.2442 157.504 29.0075 157.504 28.6564C157.504 28.3816 157.339 28.1449 157.01 27.9464C156.681 27.7327 156.179 27.496 155.505 27.2365C154.981 27.038 154.502 26.8318 154.067 26.6181C153.648 26.4044 153.289 26.1524 152.989 25.8623C152.69 25.557 152.458 25.1982 152.293 24.786C152.128 24.3737 152.046 23.8775 152.046 23.2973C152.046 22.1675 152.458 21.2743 153.281 20.6178C154.105 19.9613 155.235 19.633 156.673 19.633C157.392 19.633 158.081 19.7017 158.739 19.8391C159.398 19.9613 159.922 20.0987 160.312 20.2514L159.728 22.908C159.338 22.7706 158.912 22.6484 158.447 22.5416C157.998 22.4347 157.489 22.3812 156.92 22.3812C155.872 22.3812 155.348 22.679 155.348 23.2744C155.348 23.4118 155.37 23.534 155.415 23.6409C155.46 23.7477 155.55 23.8546 155.685 23.9615C155.819 24.0531 155.999 24.16 156.224 24.2821C156.463 24.389 156.763 24.5111 157.122 24.6485C157.856 24.9234 158.462 25.1982 158.942 25.473C159.421 25.7326 159.795 26.0227 160.065 26.3433C160.349 26.6486 160.544 26.9922 160.649 27.3739C160.769 27.7556 160.828 28.1983 160.828 28.7022C160.828 29.8931 160.387 30.7939 159.503 31.4046C158.635 32.0154 157.399 32.3207 155.797 32.3207C154.749 32.3207 153.873 32.2291 153.169 32.0459C152.48 31.8627 152.001 31.7099 151.731 31.5878L152.293 28.8167C152.862 29.0457 153.446 29.2289 154.045 29.3663C154.644 29.4885 155.235 29.5496 155.819 29.5496ZM174.381 25.9539C174.381 26.9006 174.246 27.7708 173.976 28.5648C173.707 29.3434 173.318 30.0152 172.808 30.5801C172.299 31.1298 171.685 31.5574 170.966 31.8627C170.263 32.1679 169.469 32.3207 168.586 32.3207C167.717 32.3207 166.923 32.1679 166.205 31.8627C165.501 31.5574 164.894 31.1298 164.385 30.5801C163.876 30.0152 163.479 29.3434 163.195 28.5648C162.91 27.7708 162.768 26.9006 162.768 25.9539C162.768 25.0073 162.91 24.1447 163.195 23.366C163.494 22.5874 163.898 21.9232 164.408 21.3736C164.932 20.8239 165.546 20.3964 166.25 20.0911C166.968 19.7857 167.747 19.633 168.586 19.633C169.439 19.633 170.218 19.7857 170.922 20.0911C171.64 20.3964 172.254 20.8239 172.763 21.3736C173.273 21.9232 173.669 22.5874 173.954 23.366C174.238 24.1447 174.381 25.0073 174.381 25.9539ZM170.966 25.9539C170.966 24.9005 170.757 24.076 170.338 23.4805C169.933 22.8698 169.349 22.5645 168.586 22.5645C167.822 22.5645 167.23 22.8698 166.811 23.4805C166.392 24.076 166.182 24.9005 166.182 25.9539C166.182 27.0074 166.392 27.8472 166.811 28.4732C167.23 29.0839 167.822 29.3892 168.586 29.3892C169.349 29.3892 169.933 29.0839 170.338 28.4732C170.757 27.8472 170.966 27.0074 170.966 25.9539ZM176.973 20.3659C177.542 20.1979 178.276 20.0452 179.174 19.9078C180.073 19.7551 181.016 19.6788 182.005 19.6788C183.008 19.6788 183.839 19.8162 184.498 20.0911C185.172 20.3506 185.703 20.7247 186.093 21.2132C186.482 21.7018 186.759 22.282 186.924 22.9538C187.088 23.6256 187.171 24.3737 187.171 25.1982V32.0001H183.824V25.6104C183.824 24.5111 183.682 23.7325 183.397 23.2744C183.113 22.8164 182.581 22.5874 181.802 22.5874C181.563 22.5874 181.308 22.6026 181.039 22.6332C180.769 22.6484 180.53 22.6713 180.32 22.7019V32.0001H176.973V20.3659ZM194.715 29.6183C195.044 29.6183 195.359 29.6106 195.658 29.5954C195.958 29.5801 196.197 29.5572 196.377 29.5267V26.9387C196.242 26.9082 196.04 26.8777 195.77 26.8471C195.501 26.8166 195.254 26.8013 195.029 26.8013C194.715 26.8013 194.415 26.8242 194.131 26.87C193.861 26.9006 193.622 26.9693 193.412 27.0761C193.202 27.183 193.038 27.3281 192.918 27.5113C192.798 27.6945 192.738 27.9235 192.738 28.1983C192.738 28.7327 192.91 29.1068 193.255 29.3205C193.614 29.519 194.101 29.6183 194.715 29.6183ZM194.445 19.633C195.434 19.633 196.257 19.7475 196.916 19.9765C197.575 20.2056 198.099 20.5338 198.488 20.9613C198.893 21.3888 199.177 21.9079 199.342 22.5187C199.506 23.1294 199.589 23.8088 199.589 24.5569V31.6565C199.11 31.7635 198.443 31.8856 197.59 32.023C196.736 32.1758 195.703 32.252 194.49 32.252C193.726 32.252 193.03 32.1833 192.401 32.0459C191.787 31.9085 191.256 31.687 190.806 31.3817C190.357 31.0611 190.013 30.6489 189.773 30.145C189.534 29.6412 189.414 29.0228 189.414 28.29C189.414 27.5876 189.549 26.9922 189.818 26.5036C190.103 26.015 190.477 25.6257 190.941 25.3356C191.406 25.0455 191.937 24.8394 192.536 24.7172C193.135 24.5798 193.756 24.5111 194.4 24.5111C194.834 24.5111 195.216 24.534 195.546 24.5798C195.89 24.6104 196.167 24.6562 196.377 24.7172V24.3966C196.377 23.8164 196.205 23.3508 195.86 22.9996C195.516 22.6484 194.917 22.4729 194.063 22.4729C193.494 22.4729 192.933 22.5187 192.379 22.6103C191.825 22.6866 191.346 22.8011 190.941 22.9538L190.514 20.2056C190.709 20.1445 190.949 20.0834 191.233 20.0223C191.533 19.946 191.855 19.8849 192.199 19.8391C192.543 19.778 192.903 19.7322 193.277 19.7017C193.666 19.6559 194.056 19.633 194.445 19.633ZM207.332 32.2291C206.359 32.2137 205.565 32.107 204.951 31.9085C204.352 31.7099 203.873 31.435 203.514 31.084C203.169 30.7176 202.93 30.2824 202.795 29.7786C202.675 29.2595 202.615 28.6793 202.615 28.038V14.7778L205.962 14.2281V27.351C205.962 27.6563 205.985 27.9311 206.03 28.1754C206.074 28.4197 206.157 28.6259 206.277 28.7938C206.411 28.9617 206.598 29.0991 206.838 29.206C207.078 29.3129 207.4 29.3816 207.804 29.4121L207.332 32.2291Z" fill="#38BBA1"/>
<path d="M29.7213 38.95H5.00326C2.23983 38.95 0 36.656 0 33.8259V5.12427C0 2.29401 2.23983 0 5.00326 0H29.7213C34.3095 0 38.0302 3.80922 38.0302 8.50977V30.4402C38.0302 35.1394 34.3095 38.95 29.7213 38.95Z" fill="#38BBA1"/>
<path d="M33.9016 3.80487H9.18344C6.42002 3.80487 4.18018 6.09889 4.18018 8.92917V37.6308C4.18018 40.4609 6.42002 42.7549 9.18344 42.7549H33.9016C38.4896 42.7549 42.2102 38.9456 42.2102 34.2451V12.3146C42.2102 7.61413 38.4896 3.80487 33.9016 3.80487ZM34.0357 31.1314C34.0357 33.2807 32.3336 35.024 30.235 35.024H13.6146C12.7557 35.024 12.0596 34.3109 12.0596 33.4313V28.8301C12.0596 27.9505 12.7557 27.2374 13.6146 27.2374H30.2336C32.3336 27.2389 34.0357 28.9821 34.0357 31.1314ZM34.0357 15.5935C34.0357 17.7428 32.3336 19.486 30.235 19.486H13.6146C12.7557 19.486 12.0596 18.773 12.0596 17.8933V13.2922C12.0596 12.4126 12.7557 11.6995 13.6146 11.6995H30.2336C32.3336 11.701 34.0357 13.4441 34.0357 15.5935Z" fill="#606161"/>
<path d="M38.9517 8.78436H14.2337C11.4703 8.78436 9.23047 11.0784 9.23047 13.9086V42.6102C9.23047 45.4404 11.4703 47.7343 14.2337 47.7343H38.9517C43.54 47.7343 47.2606 43.9251 47.2606 39.2245V28.2594V17.2941C47.2606 12.5936 43.5412 8.78436 38.9517 8.78436ZM39.876 36.1124C39.876 38.2617 38.1739 40.0047 36.0754 40.0047H18.6663C17.8075 40.0047 17.1113 39.292 17.1113 38.4123V33.8112C17.1113 32.9315 17.8075 32.2184 18.6663 32.2184H36.0754C38.1739 32.2184 39.876 33.9615 39.876 36.1124ZM39.876 20.573C39.876 22.7223 38.1739 24.4655 36.0754 24.4655H18.6663C17.8075 24.4655 17.1113 23.7524 17.1113 22.8728V18.2716C17.1113 17.392 17.8075 16.679 18.6663 16.679H36.0754C38.1739 16.6805 39.876 18.4236 39.876 20.573Z" fill="#BDE3EF"/>
</svg>
